<?xml version="1.0" standalone="no"?>
<!DOCTYPE svg PUBLIC "-//W3C//DTD SVG 1.1//EN" "http://www.w3.org/Graphics/SVG/1.1/DTD/svg11.dtd" >
<svg xmlns="http://www.w3.org/2000/svg">
<metadata></metadata>
<defs>
<font id="yanone_kaffeesatzthin" horiz-adv-x="911" >
<font-face units-per-em="2048" ascent="1638" descent="-410" />
<missing-glyph horiz-adv-x="378" />
<glyph unicode="&#xfb01;" horiz-adv-x="802" d="M23 961q0 45 3 54t21 9h143v135q0 125 32 196.5t80 107.5t106.5 44.5t111.5 8.5q84 0 134.5 -15.5t50.5 -38.5q0 -10 -3.5 -20t-7.5 -21q-80 29 -176 29q-43 0 -89 -7t-84 -37t-62.5 -89.5t-24.5 -163.5v-129h199q0 -45 -3 -54t-20 -9h-176v-938q0 -6 -2 -13 q-4 -10 -20 -10h-46v961h-167zM602 0v987q0 29 13.5 33t54.5 4v-1001q0 -16 -8.5 -19.5t-59.5 -3.5z" />
<glyph unicode="&#xfb02;" horiz-adv-x="823" d="M20 961q0 45 3.5 54t21.5 9h143v135q0 125 31 196.5t76 105.5t95 42t91 8q119 0 207 -45v-1443q0 -6 -2 -13q-4 -10 -20 -10h-45v1425q-35 12 -69 17.5t-69 5.5q-31 0 -70.5 -4t-74.5 -32t-58.5 -87t-23.5 -168v-133h238q0 -45 -3.5 -54t-19.5 -9h-215v-938q0 -6 -2 -13 q-4 -10 -21 -10h-45v961h-168z" />
<glyph horiz-adv-x="2048" />
<glyph horiz-adv-x="2048" />
<glyph unicode="&#xd;" horiz-adv-x="378" />
<glyph unicode=" "  horiz-adv-x="378" />
<glyph unicode="&#x09;" horiz-adv-x="378" />
<glyph unicode="&#xa0;" horiz-adv-x="378" />
<glyph unicode="!" horiz-adv-x="376" d="M123 63q0 29 16.5 49.5t46.5 20.5q33 0 50.5 -20.5t17.5 -49.5q0 -33 -18.5 -52t-49.5 -19q-33 0 -48 19t-15 52zM154 1427q-2 14 17 17.5t58 3.5l-4 -1065q-2 -18 -19.5 -24.5t-47.5 -6.5z" />
<glyph unicode="&#x22;" horiz-adv-x="460" d="M80 1505q0 41 1 70t5 31t15.5 2h22.5t21.5 -1t12.5 -1q2 -27 1 -66t-3 -84t-5.5 -90t-6.5 -82t-6 -60.5t-5 -25.5q-4 -4 -22 -4q-8 0 -19 2q-2 10 -4 44t-4 79t-3 94t-1 92zM303 1505q0 41 1 70t5 31t15.5 2h22.5t21.5 -1t12.5 -1q2 -39 0 -106.5t-7 -133.5t-10.5 -116 t-9.5 -52q-2 -4 -8 -4h-12q-8 0 -19 2q-2 10 -4 44t-4 79t-3 94t-1 92z" />
<glyph unicode="#" d="M94 422q0 41 3 51t20 10h125l16 287h-164q0 41 3 51t20 10h143l10 166q2 16 13.5 19.5t52.5 3.5l-10 -189h262l10 166q2 16 13.5 19.5t52.5 3.5l-11 -189h162q0 -41 -3 -51t-19 -10h-144l-14 -287h180q0 -41 -3 -51t-19 -10h-162l-8 -180q-2 -16 -13.5 -19.5t-52.5 -3.5 l10 203h-264l-8 -180q-2 -16 -13.5 -19.5t-52.5 -3.5l11 203h-146zM307 483h262l17 287h-264z" />
<glyph unicode="$" d="M158 70q0 6 9 23.5t23 23.5q29 -25 81.5 -44.5t150.5 -19.5q74 0 126 19.5t84 53.5t46 82t14 103q0 72 -34.5 135.5t-120.5 143.5l-230 201q-66 59 -103.5 116.5t-37.5 124.5q0 96 72.5 157.5t205.5 72.5v208q0 25 13.5 31t48.5 6v-243q59 -2 102 -11.5t71 -19.5 t41 -20.5t13 -12.5q0 -10 -6 -27.5t-16 -25.5q-25 16 -82.5 34.5t-145.5 18.5q-113 0 -181.5 -40t-68.5 -132q0 -47 35 -97t86 -97l256 -224q86 -78 118 -145.5t32 -153.5q0 -131 -63.5 -219t-217.5 -102v-203q0 -23 -12 -29t-49 -6v234q-70 0 -119 10t-81 23.5t-46 27.5 t-14 23z" />
<glyph unicode="%" horiz-adv-x="1492" d="M152 1071q0 199 77.5 289t212.5 90q66 0 117 -18.5t86 -61.5t52.5 -115.5t17.5 -183.5q0 -188 -74 -281.5t-207 -93.5q-66 0 -118 13.5t-89 53.5t-56 113.5t-19 194.5zM219 1061q0 -92 13.5 -151.5t40 -94.5t65.5 -48t88 -13q104 0 163.5 79.5t59.5 239.5q0 94 -14 155.5 t-41 96.5t-64.5 49.5t-87.5 14.5q-102 0 -162.5 -74t-60.5 -254zM270 12l893 1438q12 -2 21 -8q8 -4 15 -10.5t7 -14.5l-38 -63q-38 -62 -101 -163t-143 -229t-164 -264q-197 -315 -447 -714q-14 0 -22 4q-20 8 -21 24zM778 358q0 199 78 289t213 90q66 0 117 -18.5 t86 -61.5t52 -115.5t17 -183.5q0 -188 -73.5 -281t-206.5 -93q-66 0 -118 13t-89 53t-56.5 113.5t-19.5 194.5zM846 348q0 -92 13 -151.5t40 -94t66 -48t88 -13.5q104 0 163.5 80t59.5 239q0 94 -14.5 156t-41 96.5t-64.5 49t-87 14.5q-102 0 -162.5 -74t-60.5 -254z" />
<glyph unicode="&#x26;" horiz-adv-x="1069" d="M90 354q0 63 20.5 122t54.5 107t77 86t90 62q-76 123 -125 234.5t-49 197.5q0 82 28.5 136.5t75.5 87t108.5 46t129.5 13.5q63 0 116.5 -9.5t91 -21.5t58 -26.5t20.5 -24.5q0 -16 -6 -29.5t-10 -17.5q-102 68 -268 67q-51 0 -100.5 -8t-88.5 -32.5t-62.5 -69.5 t-23.5 -117q0 -76 53.5 -187.5t135.5 -235.5t179 -248t187 -224q18 45 28.5 90t17 85t7.5 71t1 49q0 82 -16.5 154.5t-46.5 133t-68.5 105.5t-81.5 70q63 6 109 8t91 2h104.5t94.5 -4q2 -8 2 -33q0 -16 -14.5 -21t-67.5 -5l-188 4q16 -14 41.5 -47t49 -85.5t40 -126 t16.5 -167.5q0 -25 -2 -63t-8 -83t-19.5 -95t-37.5 -99q59 -63 104 -107.5t72 -60.5q-2 -8 -14.5 -31.5t-30.5 -23.5q-12 0 -58.5 42t-111.5 113q-49 -68 -129 -112.5t-203 -44.5q-117 0 -189.5 33.5t-113.5 87t-55.5 121t-14.5 132.5zM160 348q0 -49 12 -102t44 -97.5 t90.5 -74t150.5 -29.5q109 0 177 42.5t109 105.5q-88 98 -188 224t-186 257q-41 -18 -78 -49t-66.5 -73t-47 -93t-17.5 -111z" />
<glyph unicode="'" horiz-adv-x="237" d="M80 1505q0 41 1 70t5 31t15.5 2h22.5t21.5 -1t12.5 -1q2 -27 1 -66t-3 -84t-5.5 -90t-6.5 -82t-6 -60.5t-5 -25.5q-4 -4 -22 -4q-8 0 -19 2q-2 10 -4 44t-4 79t-3 94t-1 92z" />
<glyph unicode="(" horiz-adv-x="604" d="M150 662q0 166 26.5 304t65.5 247.5t86 191.5t88 136t70.5 82t33.5 28q12 0 19.5 -12.5t15.5 -34.5q-43 -45 -101.5 -123t-110.5 -194t-88 -271t-36 -352q0 -213 39 -385.5t93.5 -302.5t111.5 -215t92 -123q-4 -20 -16.5 -33t-24.5 -13t-70.5 72t-124 208t-117.5 335 t-52 455z" />
<glyph unicode=")" horiz-adv-x="604" d="M49 -362q35 39 92.5 124.5t111.5 214.5t94 301.5t40 385.5q0 197 -37 351t-89 270t-110.5 195t-101.5 124q8 23 15.5 35t21.5 12q6 0 64.5 -61.5t126 -184.5t123 -308.5t55.5 -434.5q0 -252 -52.5 -451t-118 -336t-123 -210t-69.5 -73q-33 0 -43 46z" />
<glyph unicode="*" horiz-adv-x="968" d="M51 1069q-4 31 18.5 54.5t41.5 13.5l303 -152q2 -16 -4.5 -26.5t-20.5 -4.5zM168 590l244 291q10 10 20 5t19 -16l-213 -319q-8 -10 -18.5 -9t-20 8t-18.5 18.5t-13 21.5zM440 1376q0 16 24.5 19.5t53.5 -13.5l-18 -350q-2 -25 -39 -18zM508 860q-12 20 22 33l228 -311 q12 -16 -8.5 -36t-49.5 -24zM542 975.5q1 13.5 17 21.5l330 142q10 -6 18 -18.5t11.5 -25t0 -22.5t-13.5 -12l-352 -113q-12 14 -11 27.5z" />
<glyph unicode="+" d="M98 543q0 41 3 54t20 13h305v303q0 16 12.5 19.5t53.5 3.5v-326h323q0 -41 -3 -54t-19 -13h-301v-301q0 -16 -12.5 -19.5t-53.5 -3.5v324h-328z" />
<glyph unicode="," horiz-adv-x="360" d="M104 -203q35 57 49.5 106.5t12.5 100.5q-14 8 -23.5 25.5t-9.5 40.5q0 29 16.5 46t45.5 17t44 -14.5t15 -61.5q0 -43 -14.5 -94t-34 -94t-39 -71.5t-29.5 -28.5t-20.5 9t-12.5 19z" />
<glyph unicode="-" horiz-adv-x="614" d="M98 543q0 41 3 54t20 13h395q0 -41 -3 -54t-19 -13h-396z" />
<glyph unicode="." horiz-adv-x="360" d="M121 63q0 29 17.5 49.5t45.5 20.5q33 0 51.5 -20.5t18.5 -49.5q0 -31 -19.5 -51t-50.5 -20t-47 19t-16 52z" />
<glyph unicode="/" horiz-adv-x="579" d="M20 -41l465 1583q4 18 17.5 21.5t56.5 3.5l-461 -1585q-6 -16 -21.5 -19.5t-56.5 -3.5z" />
<glyph unicode="0" d="M86 606q0 301 89 462t296 161q100 0 168 -37t108.5 -114t58 -192.5t17.5 -271.5q0 -307 -85 -468.5t-287 -161.5q-193 0 -279 148t-86 474zM156 588q0 -287 72.5 -414t220.5 -127q170 0 238.5 147.5t68.5 426.5q0 137 -13.5 239.5t-46 170t-87 101t-136.5 33.5 q-172 0 -244.5 -149t-72.5 -428z" />
<glyph unicode="1" d="M86 28.5v19.5v11l24 1q25 1 62 2t81 1t83 1.5t66.5 1.5h33.5l31 1089q-4 0 -51 -9t-101 -20l-143 -28q-2 4 -5 24.5t-3 34.5l24 6q25 6 63 14.5t82 17.5t83 17.5t65.5 13.5t30.5 5q6 0 14 -4q4 -2 9 -2l-25 -1159h207h43t35 2q16 0 28 2q0 -12 -1 -41t-3 -29h-731 q0 2 -1 10t-1 18.5z" />
<glyph unicode="2" d="M86 35q0 23 12.5 37t34.5 49q72 113 169 214t186.5 202.5t151.5 207t62 226.5q0 43 -8 77.5t-31.5 60.5t-64.5 40t-109 14q-129 0 -215 -25.5t-133 -60.5q-8 27 -8 53q0 10 23.5 27t69.5 33t110.5 27.5t148.5 11.5q90 0 146.5 -17.5t87.5 -51.5t42 -82t11 -111 q0 -129 -63.5 -241t-155.5 -219.5t-195.5 -215t-183.5 -225.5h467h98q37 0 84 2q0 -14 -1 -41t-5 -27h-723q-2 2 -5 11t-3 24z" />
<glyph unicode="3" d="M106 -123q0 23 3.5 35t7.5 22q47 -37 98 -55t133 -18q86 0 156.5 35.5t121 98t78 146.5t27.5 181q0 82 -29.5 129t-78 73.5t-110.5 35.5t-128 13l-2 54q133 82 216 172t83 192q0 23 -7 52.5t-30.5 56t-64.5 45t-109 18.5q-129 0 -208 -24.5t-138 -65.5q-4 10 -6 23.5 t-2 27.5t23.5 33t68.5 34t110.5 26.5t149.5 11.5q88 0 144.5 -20.5t87 -53.5t42 -76t11.5 -86q0 -59 -23.5 -111.5t-60.5 -98.5t-84 -85.5t-94 -74.5q57 -4 113.5 -21.5t99.5 -53.5t69.5 -92.5t26.5 -140.5q0 -111 -32 -206t-92.5 -164.5t-145.5 -109.5t-191 -40 q-119 0 -176.5 31t-57.5 51z" />
<glyph unicode="4" d="M96 393q0 53 40 157.5t105.5 225.5t151.5 242t178 205q10 10 20.5 11t16.5 1q16 0 23.5 -4t11.5 -6l-6 -803h194q2 -2 3 -6v-23q0 -12 -4.5 -24.5t-16.5 -12.5h-176v-323q0 -25 -7 -29t-61 -4v356h-460q-12 12 -13 37zM162 422h407l13 721q-55 -57 -118 -138t-122 -175.5 t-107.5 -199t-72.5 -208.5z" />
<glyph unicode="5" d="M88 -125q0 31 10 57q41 -35 98.5 -53t141.5 -18q113 0 189.5 41t122.5 112.5t65.5 170t19.5 214.5q0 106 -42 172t-103.5 100t-131 45t-122.5 11q-92 0 -156.5 -16.5t-68.5 -18.5l53 537h627q0 -45 -7.5 -55.5t-38.5 -10.5h-264q-113 0 -256 2l-43 -391q2 0 40 7t124 7 q63 2 143 -9t150 -53t118 -120t48 -209q0 -135 -23.5 -246.5t-78 -190.5t-145.5 -122t-226 -43q-121 0 -182.5 30t-61.5 50z" />
<glyph unicode="6" d="M92 588q0 231 38 392t103.5 262t150.5 146.5t181 45.5q45 0 86 -3.5t72 -10.5t49.5 -16t18.5 -22q0 -16 -2.5 -30.5t-4.5 -18.5q-23 8 -44 14.5t-47.5 11.5t-59.5 7t-80 2q-74 0 -143.5 -42t-124 -128t-89 -218t-40.5 -310q51 111 142 168t208 57q70 0 129 -22.5 t102 -71.5t66.5 -125t23.5 -180q0 -244 -94 -379t-297 -135q-111 0 -178.5 45t-104 124.5t-49 191.5t-12.5 245zM156 573q0 -104 9 -199t38.5 -168t85 -116t147.5 -43q160 0 243 117t83 315q0 182 -70.5 266t-199.5 84q-106 0 -194.5 -66.5t-141.5 -189.5z" />
<glyph unicode="7" d="M119 1229h737q-88 -123 -175 -271.5t-167 -322.5t-148.5 -375t-119.5 -428q-16 0 -42 2t-26 12q53 233 122 434t143.5 367t151.5 296t144 222h-54t-132 -1t-187.5 -1h-222.5q-25 0 -24 66z" />
<glyph unicode="8" d="M94 369q0 70 23.5 133t62.5 115.5t91.5 93.5t107.5 65q-37 16 -71 33.5t-62 38.5q-72 47 -104.5 115.5t-32.5 142.5q0 88 29.5 152.5t78.5 105.5t113.5 61.5t134.5 20.5q53 0 113.5 -11.5t112.5 -46t87 -100t35 -172.5q0 -68 -24.5 -122t-63.5 -97t-86 -76t-92 -57 q37 -18 72.5 -40t68.5 -48q63 -53 103 -122t40 -185q0 -182 -88 -284.5t-268 -102.5q-193 0 -287 107.5t-94 279.5zM160 369q0 -68 19.5 -127.5t58 -102.5t97 -67.5t138.5 -24.5q145 0 220 89t75 233q0 100 -42 163.5t-99 110.5q-35 29 -78 51.5t-90 44.5 q-59 -18 -113.5 -54t-95.5 -85t-65.5 -108.5t-24.5 -122.5zM174 1108q0 -66 31 -123t108 -106q27 -18 69 -37t91 -41q53 23 103.5 53.5t88 70.5t61.5 87t24 102q0 88 -28 141.5t-70 81t-92 35.5t-93 8q-57 0 -109.5 -15t-93.5 -48t-65.5 -85t-24.5 -124z" />
<glyph unicode="9" d="M86 727q0 256 94 389t299 133q109 0 176.5 -39t104.5 -115.5t50 -191.5t13 -266q0 -434 -133 -641t-385 -207q-63 0 -113.5 8t-50.5 27q0 16 2 29.5t4 17.5q43 -10 79 -13t75 -3q217 0 329.5 174t127.5 520q-53 -104 -137 -161.5t-205 -57.5q-68 0 -128.5 23.5 t-104.5 71.5t-70.5 123t-26.5 179zM154 743q0 -182 78.5 -265t199.5 -83q98 0 182 64.5t146 181.5q0 106 -8.5 204.5t-37 173.5t-85 120t-150.5 45q-160 0 -242.5 -109.5t-82.5 -331.5z" />
<glyph unicode=":" horiz-adv-x="360" d="M119 63q0 29 17.5 49.5t47.5 20.5q31 0 49.5 -20.5t18.5 -49.5q0 -31 -19.5 -51t-48.5 -20q-33 0 -49 19t-16 52zM119 793q0 29 17.5 49t47.5 20q31 0 49.5 -20.5t18.5 -48.5q0 -31 -19.5 -51.5t-48.5 -20.5q-33 0 -49 19.5t-16 52.5z" />
<glyph unicode=";" horiz-adv-x="360" d="M100 -203q35 57 49.5 106.5t14.5 100.5q-35 17 -35 66q0 29 16.5 46t44.5 17q29 0 45.5 -14.5t16.5 -61.5q0 -43 -14.5 -94t-34 -94t-39 -71.5t-31.5 -28.5q-10 0 -19.5 9t-13.5 19zM125 793q0 29 17.5 49t47.5 20q31 0 49.5 -20.5t18.5 -48.5q0 -31 -19.5 -51.5 t-48.5 -20.5q-33 0 -49 19.5t-16 52.5z" />
<glyph unicode="&#x3c;" horiz-adv-x="819" d="M98 535q0 27 27 40l557 277q14 -16 18.5 -27.5t4.5 -19.5q0 -18 -15 -25l-502 -248l525 -225q0 -29 -11.5 -42t-21.5 -13t-43 12l-524 230q-14 20 -15 41z" />
<glyph unicode="=" d="M98 375q0 41 3 54t20 13h694q0 -41 -3 -54t-19 -13h-695zM98 711q0 41 3 54t20 13h694q0 -41 -3 -54t-19 -13h-695z" />
<glyph unicode="&#x3e;" horiz-adv-x="819" d="M104 786q2 29 12.5 43.5t20.5 14.5q8 0 17.5 -4t25.5 -11l527 -229q12 -14 12 -41q0 -29 -25 -39l-559 -276q-12 14 -17 26.5t-5 18.5q0 16 14 26l502 246z" />
<glyph unicode="?" horiz-adv-x="606" d="M59 1372q0 10 18.5 24.5t51.5 27t74 21.5t88 9q49 0 100 -12t92 -44t68 -89.5t27 -147.5q0 -86 -30 -157.5t-70 -131t-82 -109.5t-68 -93q-29 -49 -39 -94.5t-10 -81.5q0 -45 7 -72t3 -31q-6 -10 -24.5 -10t-35.5 4q-6 12 -10 29q-4 14 -6 33.5t-2 46.5q0 41 11 92 t46 110q29 49 70 98.5t79 103.5t64.5 117.5t26.5 141.5q0 80 -25.5 126t-60.5 69.5t-73 28.5t-64 5q-131 0 -219 -67q-2 6 -4.5 18.5t-2.5 34.5zM199 63q0 29 16 49.5t47 20.5q33 0 50.5 -20.5t17.5 -49.5q0 -31 -18.5 -51t-49.5 -20q-33 0 -48 19t-15 52z" />
<glyph unicode="@" horiz-adv-x="1572" d="M119 543q0 240 53 404.5t150.5 266t230.5 146.5t293 45q315 0 463.5 -164t148.5 -524q0 -170 -19.5 -290t-50 -198.5t-68.5 -124t-75 -67t-68.5 -26.5t-48.5 -5q-41 0 -74.5 15.5t-54.5 37.5q-25 -16 -82 -36.5t-151 -20.5q-53 -2 -101.5 8t-84 43t-56 93.5t-16.5 158.5 q2 98 30.5 160.5t74.5 99.5t107.5 51.5t133.5 14.5q35 0 67.5 -2t61.5 -11q2 23 2 46v42.5t2 45.5q2 59 -11 97t-40 59.5t-63.5 28.5t-81.5 7q-72 0 -129.5 -11t-104.5 -38q-6 14 -6 39q0 18 18 31q35 18 93.5 30.5t152.5 12.5q117 0 178.5 -53.5t57.5 -192.5l-17 -465 q-4 -74 -5 -118t-5 -68v-2q39 -43 102 -43q20 0 64.5 17t89.5 82.5t79 196t34 355.5q0 164 -31 282.5t-97.5 195.5t-171 112.5t-251.5 35.5q-145 0 -266 -41.5t-208 -137t-135.5 -250t-48.5 -379.5q0 -197 22.5 -336.5t62.5 -234.5t97.5 -152.5t127 -87t149.5 -39t168 -9.5 q94 0 168 12.5t131 31t101 40t79 39.5q4 -4 11.5 -22.5t7.5 -36.5q0 -8 -35 -28.5t-99.5 -42t-155.5 -38t-202 -16.5q-94 0 -182 8t-166 39t-142.5 91.5t-110.5 162.5t-71.5 256t-25.5 371zM569 303q-2 -80 14.5 -129t45 -74.5t68.5 -34t83 -8.5q31 0 62.5 6.5t59.5 17.5 t46.5 24.5t18.5 27.5l14 432q-29 4 -63.5 7t-63.5 3q-57 0 -107.5 -12t-89.5 -43t-62.5 -83t-25.5 -134z" />
<glyph unicode="A" horiz-adv-x="892" d="M18 0l404 1436q0 8 18 8q20 0 27 -6l405 -1415q1 -4 1 -8q0 -17 -25 -17h-20.5t-22.5 2l-119 424h-479l-111 -410q-4 -10 -12 -13t-25 -3h-15t-26 2zM223 487h447l-125 451q-18 68 -35.5 132.5t-31 118.5t-23 95t-11.5 59q-2 -18 -11 -59t-22.5 -95t-29.5 -118.5 t-35 -132.5z" />
<glyph unicode="B" horiz-adv-x="829" d="M131 0v1401q0 14 9.5 23.5t41.5 9.5h205q55 0 115.5 -11.5t111 -45.5t83 -94t32.5 -159q0 -94 -21.5 -156.5t-52 -99.5t-66.5 -54t-67 -21q31 -2 74 -13.5t82 -44.5t66.5 -91t27.5 -155q0 -172 -46 -270t-110.5 -147t-132 -60.5t-108.5 -11.5h-244zM199 63h174 q61 0 119.5 18.5t104.5 66t74.5 128t28.5 207.5q0 94 -25.5 148.5t-70.5 81t-104.5 33t-128.5 6.5h-172v-689zM199 815h198q53 0 100.5 14.5t83 48t57 92t21.5 148.5q0 76 -24.5 126t-63.5 78t-89 39t-101 11h-182v-557z" />
<glyph unicode="C" horiz-adv-x="745" d="M92 641q0 184 16.5 317.5t45 223.5t67.5 144t82 82t90 37t92 9t80 -10t59.5 -25.5t38 -32t13.5 -30.5q0 -10 -5 -22.5t-12 -20.5q-6 6 -20 18t-37.5 24.5t-53.5 23t-63 10.5q-37 0 -75.5 -8.5t-74.5 -36t-66.5 -77.5t-54.5 -134t-37 -207t-13 -293q0 -193 24.5 -307.5 t64.5 -176t88 -80t97 -18.5q39 0 76 11.5t67.5 27.5t54 36.5t36.5 39.5q6 -10 11 -22.5t5 -24.5q0 -18 -20.5 -43t-55 -46.5t-81 -35.5t-99.5 -14q-35 0 -74 5t-76.5 25.5t-71.5 62.5t-60.5 114.5t-42 183t-15.5 270.5z" />
<glyph unicode="D" horiz-adv-x="880" d="M135 0v1401q0 14 9.5 23.5t39.5 9.5h207q98 0 172 -36t124 -113t75.5 -198.5t25.5 -291.5q0 -256 -33.5 -413t-91 -242t-132 -112.5t-154.5 -27.5h-242zM203 66h174q66 0 127 24.5t109.5 101t77 221t28.5 384.5q0 299 -81 435t-255 136h-180v-1302z" />
<glyph unicode="E" horiz-adv-x="718" d="M137 0v1411q0 4 2 10q4 12 21 13h489q0 -41 -2 -53.5t-12 -12.5h-430v-551h401q0 -41 -2 -52t-16 -11h-383v-688h446q0 -45 -2 -55.5t-16 -10.5h-496z" />
<glyph unicode="F" horiz-adv-x="694" d="M137 0v1411q0 4 2 10q4 12 21 13h489q0 -41 -2 -52.5t-12 -11.5h-430v-551h401q0 -41 -2 -53t-16 -12h-383v-731q0 -6 -2 -13q-4 -10 -21 -10h-45z" />
<glyph unicode="G" horiz-adv-x="839" d="M92 705q0 229 31 375.5t87 229.5t134 113.5t170 30.5q90 0 151.5 -25.5t61.5 -58.5q0 -23 -12 -43q-35 27 -80 44.5t-111 17.5q-80 0 -146.5 -28t-115.5 -103.5t-75.5 -209t-26.5 -341.5q0 -221 25.5 -352.5t68.5 -200t100.5 -88t120.5 -19.5q45 0 81 10.5t62.5 25.5 t42 32.5t21.5 29.5v586h-240v41q0 23 23 23h283v-680q-8 -12 -27 -35t-50.5 -45.5t-80.5 -38.5t-119 -16q-82 0 -151.5 26.5t-119.5 104t-79 220t-29 374.5z" />
<glyph unicode="H" horiz-adv-x="923" d="M131 0v1411q0 16 9.5 19.5t58.5 3.5v-615h526v592q0 16 8 19.5t60 3.5v-1411q0 -16 -9.5 -19.5t-58.5 -3.5v754h-526v-731q0 -16 -9.5 -19.5t-58.5 -3.5z" />
<glyph unicode="I" horiz-adv-x="329" d="M131 0v1395q0 29 9.5 34t58.5 5v-1411q0 -16 -9.5 -19.5t-58.5 -3.5z" />
<glyph unicode="J" horiz-adv-x="610" d="M43 76q0 29 18 47q29 -35 72 -56.5t103 -21.5q63 0 99 28.5t53.5 75t20.5 105.5t3 123v1020q0 29 8 33t59 4v-1084q0 -61 -5 -126.5t-28.5 -120t-71.5 -89t-134 -34.5q-90 0 -143.5 31.5t-53.5 64.5z" />
<glyph unicode="K" horiz-adv-x="802" d="M131 0v1411q0 16 8 19.5t60 3.5v-621l483 617q10 4 21.5 4h21.5q47 0 20 -33l-481 -596q135 -74 262 -261.5t230 -514.5q2 -7 2 -13q0 -18 -25 -18h-19t-20 2q-57 160 -107 272.5t-97.5 190.5t-90.5 131t-86 94q-27 25 -55.5 41t-58.5 29v-735q0 -16 -8.5 -19.5 t-59.5 -3.5z" />
<glyph unicode="L" horiz-adv-x="694" d="M131 0v1401q0 25 9.5 29t62.5 4v-1371h450v-40q0 -16 -6 -19.5t-16 -3.5h-500z" />
<glyph unicode="M" horiz-adv-x="1038" d="M131 0v1411q0 23 23 23h39l245 -801q2 -4 13.5 -46t27.5 -89q16 -55 39 -125q20 68 37 121q14 47 25.5 87t13.5 44l244 786q2 2 6 12.5t16 10.5h45v-1411q0 -16 -8 -19.5t-59 -3.5l2 670v38.5v81t1 106.5t1 117.5t1 115t1 94.5q-12 -37 -28.5 -92.5t-36 -117t-38 -122 t-34 -109.5t-25.5 -80.5t-10 -33.5l-125 -377q-6 -18 -23 -19h-37l-122 396q0 2 -10.5 31.5t-25 75.5t-32.5 104.5t-37.5 119t-37 115.5t-29.5 98q0 -49 1 -134t2 -168t2 -147.5t1 -74.5v-665q0 -16 -9.5 -19.5t-58.5 -3.5z" />
<glyph unicode="N" horiz-adv-x="954" d="M131 0v1411q0 23 23 23h41l258 -576q2 -4 20.5 -48t46 -109.5t62 -144.5t67.5 -154.5t61.5 -140t45.5 -101.5v1251q0 16 8 19.5t59 3.5v-1411q0 -23 -22 -23h-41l-262 586q-2 4 -19.5 44t-45 102.5t-61.5 139t-67 152.5t-62.5 142.5t-47.5 111.5q0 -43 1 -114.5t1 -154.5 t1 -167t1 -154v-115v-47v-503q0 -16 -8.5 -19.5t-59.5 -3.5z" />
<glyph unicode="O" horiz-adv-x="942" d="M92 727q0 197 24.5 335t74 225t123 127t173.5 40q98 0 168 -38t113 -124t62.5 -225t19.5 -340q0 -203 -22.5 -345t-68.5 -231.5t-120 -130t-174 -40.5q-98 0 -168 36.5t-116 123.5t-67.5 230.5t-21.5 356.5zM164 700q0 -180 17.5 -304t53 -201.5t93 -112.5t137.5 -35 q82 0 142.5 36t98 118t56 212t18.5 320q0 184 -17.5 309t-53 202t-91 109.5t-133.5 32.5q-82 0 -142 -35.5t-100 -117.5t-59.5 -212.5t-19.5 -320.5z" />
<glyph unicode="P" horiz-adv-x="774" d="M131 0v1411q0 23 23 23h221q96 0 161.5 -31t105.5 -82t57.5 -119.5t17.5 -144.5q0 -217 -94.5 -323.5t-262.5 -106.5h-161v-604q0 -16 -8.5 -19.5t-59.5 -3.5zM199 692h161q147 0 217 98.5t70 268.5q0 63 -13 119.5t-45 99.5t-85 67.5t-133 24.5h-172v-678z" />
<glyph unicode="Q" horiz-adv-x="942" d="M92 727q0 197 24.5 335t74 225t123 127t173.5 40q98 0 168 -38t113 -124t62.5 -225t19.5 -340q0 -188 -18.5 -323.5t-58.5 -225.5t-101.5 -137t-147.5 -57q20 -113 53 -152t87 -39q88 0 135 35q8 -10 11 -20.5t3 -20.5q0 -12 -13.5 -21.5t-36 -16.5t-51 -11t-59.5 -4 q-80 0 -127 55t-73 191q-94 2 -163 40.5t-113 125.5t-64.5 229.5t-20.5 351.5zM164 700q0 -180 17.5 -304t53 -201.5t93 -112.5t137.5 -35q82 0 142.5 36t98 118t56 212t18.5 320q0 184 -17.5 309t-53 202t-91 109.5t-133.5 32.5q-82 0 -142 -35.5t-100 -117.5t-59.5 -212.5 t-19.5 -320.5z" />
<glyph unicode="R" horiz-adv-x="784" d="M131 0v1411q0 4 2 10q4 12 21 13h221q96 0 161.5 -31t105.5 -82t57.5 -119.5t17.5 -144.5q0 -176 -62.5 -278.5t-177.5 -137.5q18 -25 50 -76t66 -129t62.5 -180t42.5 -229q2 -16 -3 -20.5t-25 -6.5h-39q-18 147 -51 258t-67 187.5t-63.5 121.5t-43.5 62q-10 -2 -22.5 -2 h-23.5h-161v-604q0 -16 -8.5 -19.5t-59.5 -3.5zM199 692h161q147 0 217 98.5t70 266.5q0 63 -13 120.5t-45 100.5t-85 67.5t-133 24.5h-172v-678z" />
<glyph unicode="S" horiz-adv-x="776" d="M80 78q0 29 29 47q33 -31 87 -54.5t156 -23.5q150 0 216.5 80t66.5 207q0 49 -8.5 92t-27.5 84t-51 82t-77 88l-233 223q-70 72 -110 139.5t-40 147.5q0 117 88 190.5t248 73.5q129 0 189.5 -27.5t60.5 -54.5t-23 -43q-27 23 -85 42.5t-150 19.5q-117 0 -187.5 -54.5 t-70.5 -144.5q0 -70 36.5 -125t90.5 -111l260 -251q45 -47 75.5 -89.5t49 -85.5t25.5 -88t7 -98q0 -80 -20 -147.5t-63.5 -115.5t-110 -74.5t-158.5 -26.5q-72 0 -122 10t-83.5 25.5t-49 33t-15.5 29.5z" />
<glyph unicode="T" horiz-adv-x="741" d="M10 1368v43q0 23 23 23h696v-43q0 -23 -22 -23h-308v-1348q0 -16 -8 -18t-57 -2v1368h-324z" />
<glyph unicode="U" horiz-adv-x="976" d="M131 457v954q0 16 8 19.5t60 3.5v-977q0 -80 9 -155t40 -132t91 -91t165 -34q82 0 159.5 17.5t112.5 33.5v1317q0 16 11.5 18.5t58.5 2.5v-1387q-20 -12 -56 -24.5t-82 -21.5t-98.5 -15t-105.5 -6q-127 0 -202 38.5t-112.5 105t-48 152.5t-10.5 181z" />
<glyph unicode="V" horiz-adv-x="862" d="M10 1425.5q0 8.5 17 8.5h49l274 -988q16 -57 28.5 -106t24 -94t20.5 -89t19 -89q16 92 36 179t48 199l252 955q4 16 7 24.5t18 8.5h51l-383 -1450q-6 -2 -16.5 -3t-28.5 -1q-12 0 -23.5 32.5t-27.5 85.5q-18 63 -44 154.5t-54.5 195t-59.5 214t-59 217.5 q-68 248 -144 522q-4 16 -4 24.5z" />
<glyph unicode="W" horiz-adv-x="1298" d="M10 1422.5q0 11.5 15 11.5h51l221 -990q12 -57 21.5 -101t16.5 -83t13 -78t14 -84h5q10 96 24.5 175t32.5 171l184 877q4 14 7 22.5t16 10.5h51l207 -910q12 -57 21.5 -100t15.5 -82t12 -77t14 -83h6q10 72 22.5 159t33.5 183l200 957q4 16 7.5 24.5t17.5 8.5h51 l-307 -1450q-6 -2 -15.5 -4.5t-27.5 -2.5q-10 0 -19.5 28t-19.5 69l-196 833l-58 322q-6 -31 -14 -81t-17.5 -100.5t-16.5 -89t-7 -47.5l-199 -927q-6 -2 -17 -3t-30 -1q-10 0 -20.5 32.5t-22.5 91.5q-14 66 -34.5 157t-43 194.5t-47 214t-49.5 215.5q-56 248 -117 516 q-2 10 -2 21.5z" />
<glyph unicode="X" horiz-adv-x="876" d="M23 0l372 750l-317 671q-2 4 -3 7.5t6 4.5t23.5 1h47.5l122 -260q29 -59 55.5 -118t49 -110t40 -90t25.5 -57q8 18 25.5 57t40 89t50.5 109.5t56 119.5l115 247q4 8 13.5 10.5t68.5 2.5l-326 -691l363 -723q2 -6 2 -10q0 -10 -12 -10h-68l-162 336l-172 354 q-8 -18 -25.5 -54t-40 -83t-49 -102.5t-55.5 -112.5l-164 -328q-6 -10 -20 -10h-61z" />
<glyph unicode="Y" horiz-adv-x="733" d="M12 1421q-1 3 -1 5q0 5 7 6q11 2 68 2l115 -301q27 -68 56.5 -151t55 -155.5t42 -123t16.5 -52.5q0 2 17.5 52.5t43 122t55 154.5t54.5 153l106 286q4 10 13.5 12.5t62.5 2.5l-320 -850v-561q0 -16 -8 -19.5t-59 -3.5v588z" />
<glyph unicode="Z" horiz-adv-x="817" d="M59 29q0 23 9 39l602 1300h-557v43q0 23 22 23h608q10 -10 11 -27q0 -20 -11 -41l-606 -1303h516q29 0 54.5 2.5t42.5 6.5v-49q0 -23 -23 -23h-653q-14 6 -15 29z" />
<glyph unicode="[" horiz-adv-x="901" d="M354 -403v2054q0 20 10.5 25t45.5 5h469q0 -39 -5.5 -49t-33.5 -10h-420v-1962h454q0 -47 -10 -55t-30 -8h-480z" />
<glyph unicode="\" horiz-adv-x="577" d="M23 1542q-4 18 7 21.5t56 3.5l469 -1606q4 -16 -10.5 -19t-52.5 -3z" />
<glyph unicode="]" horiz-adv-x="901" d="M23 -410q0 39 5 48.5t33 9.5h418v1972h-452q0 47 10 55t31 8h479v-2062q0 -20 -10.5 -25.5t-44.5 -5.5h-469z" />
<glyph unicode="^" horiz-adv-x="880" d="M133 481l311 291l283 -268q12 -10 12 -25q0 -33 -37 -37l-264 242l-233 -219q-16 -14 -24.5 -18.5t-14.5 -4.5q-16 0 -23.5 11.5t-9.5 27.5z" />
<glyph unicode="_" horiz-adv-x="794" d="M39 -166q0 41 3 53.5t19 12.5h695q0 -41 -3 -53.5t-20 -12.5h-694z" />
<glyph unicode="`" horiz-adv-x="317" d="M0 1438q0 2 3 12t7 20.5t10.5 18.5t14.5 8l21 -17q20 -18 51.5 -43.5t67.5 -55t66.5 -56.5t52 -46t23.5 -22q-4 -12 -10 -20q-4 -8 -9 -14t-7 -6l-21 16q-22 16 -54 39.5t-69.5 52.5t-69.5 53.5t-54.5 41t-22.5 18.5z" />
<glyph unicode="a" horiz-adv-x="774" d="M86 279q0 109 28.5 174t76 100t106.5 46t121 11q49 0 97 -5t85 -15v194q0 61 -14.5 99.5t-40 60t-61 28.5t-76.5 7q-111 0 -193 -17.5t-119 -35.5q-10 19 -10 37q0 25 12 32q35 16 125 32.5t201 16.5q117 0 179.5 -54t62.5 -193v-131q0 -176 -3.5 -332t-7.5 -279 q-14 -8 -36.5 -21.5t-56.5 -25.5t-78 -20t-101 -8h-22q-45 0 -87 6q-54 8 -95.5 38.5t-67 90t-25.5 164.5zM156 281q0 -86 20.5 -134.5t54 -72t76.5 -27.5t90 -4q66 0 118 18.5t73 36.5q6 78 9 198.5t3 235.5q-37 10 -83 15.5t-81 5.5q-53 0 -104 -7t-90 -35t-62.5 -82 t-23.5 -148z" />
<glyph unicode="b" horiz-adv-x="851" d="M135 41v1425q0 29 15.5 34t52.5 5v-553q55 43 121.5 67.5t164.5 24.5q63 0 114.5 -20t88.5 -64.5t57.5 -118t20.5 -182.5q0 -152 -18.5 -261t-49 -185t-70.5 -121t-84 -70.5t-89 -33.5t-86 -8q-158 0 -238 61zM203 88q20 -16 61 -30.5t113 -14.5q47 0 103.5 17.5 t105.5 79t81.5 178t32.5 315.5q0 100 -14 166.5t-44 106.5t-74 56.5t-105 16.5q-74 0 -139.5 -23.5t-120.5 -76.5v-791z" />
<glyph unicode="c" horiz-adv-x="708" d="M96 489q0 184 35 294t89 168.5t120 75.5t129 17q33 0 63.5 -6t55 -16t39 -23.5t14.5 -27.5q0 -8 -3 -21.5t-11 -23.5q-25 20 -68 37.5t-102 17.5q-47 0 -99.5 -15.5t-95.5 -66.5t-70.5 -150.5t-27.5 -267.5q0 -139 19.5 -225t53 -133t81 -63.5t102.5 -16.5q76 0 129 23.5 t82 52.5q12 -23 12 -45q0 -14 -17.5 -30.5t-49 -31t-75.5 -23.5t-95 -9q-66 0 -122.5 16t-97.5 70.5t-65.5 155t-24.5 267.5z" />
<glyph unicode="d" horiz-adv-x="851" d="M96 492q0 143 30 247.5t80 172t116.5 100t140.5 32.5q57 0 102 -10t82 -37v471q0 29 15.5 33t54.5 4v-1464q-49 -29 -124 -45t-163 -16q-68 0 -129 15t-106 67.5t-72 154.5t-27 275zM168 494q0 -154 20.5 -243t56.5 -135t87 -59.5t112 -13.5q57 0 110.5 11.5t94.5 37.5 l-2 836q-37 29 -72.5 41t-99.5 12q-63 0 -119.5 -29.5t-97.5 -90t-65.5 -152t-24.5 -215.5z" />
<glyph unicode="e" horiz-adv-x="790" d="M92 453q0 203 35 320.5t88 178t118 76.5t126 16q70 0 118 -23.5t78.5 -65.5t45 -101t14.5 -131q0 -61 -3 -120.5t-12 -106.5q-63 -12 -130.5 -19.5t-131 -11.5t-120 -5t-95.5 -1h-63v-10q0 -135 21.5 -216t58 -122t88 -53.5t110.5 -12.5q74 0 142.5 19.5t115.5 56.5 q6 -16 8.5 -28.5t2.5 -22.5q0 -14 -22.5 -29.5t-59.5 -29t-86.5 -22.5t-104.5 -9q-74 0 -136 15t-108.5 64.5t-72 142.5t-25.5 251zM160 520h83t124.5 2t141.5 9.5t132 19.5q4 43 6 78t2 71q-2 66 -11 118t-30.5 88t-57.5 55.5t-91 19.5q-45 0 -95.5 -11.5t-93.5 -57.5 t-73.5 -138t-36.5 -254z" />
<glyph unicode="f" horiz-adv-x="497" d="M33 961q0 45 3 54t21 9h146v135q0 119 30.5 189.5t78.5 107.5t104.5 48.5t109.5 11.5q92 0 130 -16.5t38 -31.5q0 -12 -3 -21t-7 -20q-37 12 -73 17.5t-83 5.5q-43 0 -89 -7t-84 -37t-61.5 -89.5t-23.5 -161.5v-131h240q0 -45 -3 -54t-20 -9h-217v-938q0 -23 -22 -23h-45 v961h-170z" />
<glyph unicode="g" horiz-adv-x="841" d="M84 -190q0 37 15.5 74.5t41 73.5t58 65.5t65.5 52.5q-66 18 -105.5 44.5t-39.5 61.5q0 20 11 44t30.5 47.5t43 45t48.5 39.5q-80 47 -106.5 133.5t-26.5 186.5q0 92 26.5 160.5t71.5 114.5t105.5 68.5t128.5 22.5q16 0 40.5 -3t49.5 -7h258q2 -4 4 -10t2 -18 q0 -33 -37 -33q-33 0 -72 2t-73 6q68 -29 107.5 -97.5t39.5 -172.5q0 -78 -18.5 -150t-58.5 -126t-103.5 -87t-151.5 -33q-80 0 -137 19q-41 -29 -77 -71t-36 -68q0 -16 26 -32t72 -28t109.5 -21.5t136.5 -17.5q53 -6 102.5 -18t87.5 -36t60.5 -62.5t22.5 -100.5 q0 -53 -24.5 -103t-74 -91t-124 -66t-174.5 -25q-102 0 -165 18.5t-98.5 48.5t-48 69t-12.5 80zM154 -184q0 -33 9 -60.5t36.5 -49t78 -34t132.5 -12.5t143 18.5t102 48t61.5 68.5t20.5 80q0 47 -18.5 77t-50 47t-73.5 25.5t-87 12.5q-102 10 -180 24q-31 -20 -63 -48.5 t-56.5 -61.5t-39.5 -68t-15 -67zM186 676q0 -55 8.5 -109.5t36 -96.5t77.5 -67.5t136 -25.5q68 0 116 29.5t80 77.5t47 108.5t15 124.5q0 137 -67 202.5t-184 65.5q-53 0 -101.5 -19.5t-84.5 -57.5t-57.5 -96t-21.5 -136z" />
<glyph unicode="h" horiz-adv-x="839" d="M129 0v1468q0 29 12.5 33t53.5 4v-555q68 51 142.5 72.5t143.5 21.5q78 0 127 -19t77 -56t38 -88.5t10 -114.5v-743q0 -16 -9 -19.5t-58 -3.5v758q0 49 -8.5 90t-31 70.5t-61.5 45t-100 15.5q-59 0 -134 -23.5t-136 -83.5v-849q0 -16 -8.5 -19.5t-57.5 -3.5z" />
<glyph unicode="i" horiz-adv-x="342" d="M125 1389q2 67 46 67h1q45 0 45 -70q-4 -65 -48 -65h-1q-43 2 -43 58v10zM135 0v987q0 29 16.5 33t55.5 4v-1001q0 -16 -10.5 -19.5t-61.5 -3.5z" />
<glyph unicode="j" horiz-adv-x="368" d="M-250 -313q0 23 14 43q35 -25 86.5 -44.5t129.5 -19.5q57 0 90.5 18.5t51 54.5t23 87t5.5 119v1042q0 29 13 33t54 4v-1100q0 -72 -9 -131t-36 -101t-73 -65.5t-122 -23.5q-109 0 -168 27.5t-59 56.5zM139 1389q2 67 46 67h1q45 0 45 -70q-4 -65 -48 -65h-1q-43 2 -43 58 v10z" />
<glyph unicode="k" horiz-adv-x="819" d="M135 0v1468q0 29 13.5 33t54.5 4v-612q33 37 74.5 65.5t85 48t84 28.5t73.5 9q98 0 140 -46t42 -136q0 -74 -31.5 -130t-72.5 -97t-84 -65.5t-63 -34.5q8 1 16 1q27 0 59 -10q44 -12 86.5 -44.5t77.5 -88t51 -139.5q4 -25 6.5 -51.5t2.5 -57.5q0 -29 -2.5 -57.5 t-6.5 -60.5q-2 -10 -3 -15.5t-8 -8.5t-21.5 -3h-40.5q4 39 7 72.5t3 64.5q0 57 -8 103.5t-21 81.5q-18 49 -47 81.5t-60.5 51t-64.5 25.5t-63 7q-18 0 -35 -2t-31 -6q-16 -4 -40.5 -12t-47.5 -18q-27 -10 -57 -23v-403q0 -16 -7.5 -19.5t-60.5 -3.5zM203 489q88 27 165.5 63 t136 81t93.5 100t35 121q0 125 -129 125q-68 0 -146.5 -36t-154.5 -124v-330z" />
<glyph unicode="l" horiz-adv-x="339" d="M135 0v1468q0 29 14.5 33t53.5 4v-1482q0 -16 -9.5 -19.5t-58.5 -3.5z" />
<glyph unicode="m" horiz-adv-x="1259" d="M135 0v977q160 67 295 67h4q86 0 134 -20t71 -59q61 41 133 60t137 19q74 0 119 -19t69.5 -58t32 -96.5t7.5 -131.5v-716q0 -16 -8.5 -19.5t-59.5 -3.5v752q0 59 -6 102t-23.5 71.5t-50.5 42t-84 13.5q-55 0 -113.5 -15.5t-119.5 -56.5v-886q0 -12 -3 -17.5t-24 -5.5h-39 v805q-2 43 -8 75.5t-23.5 55t-50 34t-88.5 11.5q-55 0 -111.5 -11.5t-121.5 -41.5v-905q0 -16 -10.5 -19.5t-57.5 -3.5z" />
<glyph unicode="n" horiz-adv-x="851" d="M131 0v971q78 35 162 54t174 19q84 0 138 -18t85 -55t42 -91.5t11 -123.5v-733q0 -16 -9 -19.5t-60 -3.5v741q0 61 -8.5 106.5t-31 75t-63.5 44t-104 14.5q-29 0 -62.5 -3t-70.5 -10t-73 -18.5t-64 -25.5v-901q0 -16 -9.5 -19.5t-56.5 -3.5z" />
<glyph unicode="o" horiz-adv-x="811" d="M76 508q0 287 92 411.5t250 124.5q78 0 137 -24.5t99 -85t60.5 -163.5t20.5 -261q0 -270 -88 -400t-252 -130q-72 0 -131 17t-101 72.5t-64.5 160t-22.5 278.5zM145 496q0 -137 16.5 -225.5t49.5 -138.5t80 -69.5t106 -19.5q123 0 196 113.5t73 359.5q0 141 -17.5 231.5 t-49.5 142.5t-79 71.5t-104 19.5q-61 0 -111.5 -24.5t-85.5 -82t-54.5 -149.5t-19.5 -229z" />
<glyph unicode="p" horiz-adv-x="845" d="M135 -377v1338q68 43 137.5 63t155.5 20q80 0 143.5 -21.5t107.5 -72.5t66.5 -136t22.5 -210q0 -209 -39 -331.5t-95 -188.5t-118.5 -85t-109.5 -19q-74 0 -128.5 28.5t-74.5 57.5v-463q-18 -6 -35 -6q-33 0 -33 26zM203 160q35 -59 87 -88t105 -29q37 0 89.5 16.5 t99.5 70.5t80.5 160.5t33.5 289.5q0 119 -17 196.5t-52 122.5t-86 63.5t-119 18.5q-66 0 -120 -16.5t-101 -44.5v-760z" />
<glyph unicode="q" horiz-adv-x="868" d="M94 457q0 299 111.5 443t298.5 144q72 0 126 -15t101 -50v-1356q0 -20 -7 -24.5t-36 -4.5h-24v508q-41 -57 -106.5 -89.5t-154.5 -32.5q-47 0 -100 15t-100 64.5t-78 143.5t-31 254zM166 451q0 -139 26.5 -219t65.5 -122t84 -54.5t84 -12.5h7q58 0 123 33q69 35 108 121 v741q-23 18 -69 30.5t-101 12.5q-158 0 -243 -129t-85 -401z" />
<glyph unicode="r" horiz-adv-x="583" d="M131 0v954q70 49 139.5 69.5t128.5 20.5q72 0 113 -17t41 -42q0 -10 -4 -23.5t-10 -19.5q-23 14 -55.5 25.5t-75.5 11.5q-121 0 -209 -68v-888q0 -16 -10.5 -19.5t-57.5 -3.5z" />
<glyph unicode="s" horiz-adv-x="792" d="M96 55q0 12 3 24.5t16 22.5q47 -31 101 -44t140 -13q121 0 194 44t73 142q0 72 -35 126.5t-107 105.5l-229 141q-47 29 -77 55.5t-46 52t-21.5 51t-5.5 56.5q0 53 25 95t70 71t105 44t132 15q68 0 117 -11t82 -25.5t49 -30.5t16 -25q0 -18 -20 -45q-55 37 -111.5 55.5 t-130.5 18.5q-55 0 -102 -10t-83 -30.5t-56.5 -50.5t-20.5 -69q0 -43 22.5 -79.5t94.5 -82.5l250 -157q76 -55 113.5 -115.5t37.5 -138.5q0 -135 -87 -201.5t-245 -66.5q-127 0 -195.5 24.5t-68.5 50.5z" />
<glyph unicode="t" horiz-adv-x="620" d="M68 961q0 41 3 52t17 11h145v334q0 27 11.5 31t56.5 4v-369h277q0 -43 -2.5 -53t-14.5 -10h-260v-658q0 -55 2 -103t13.5 -83t33 -54.5t62.5 -19.5q49 0 77.5 10t63.5 27q8 -16 8 -39q0 -29 -48 -45t-112 -16q-61 0 -95 24.5t-50 69.5t-19.5 104.5t-3.5 130.5v652h-165z " />
<glyph unicode="u" horiz-adv-x="894" d="M141 369v632q0 8 1 13.5t7.5 7.5t19.5 2h40v-668q0 -90 10 -150.5t38 -96t76 -51t122 -15.5q41 0 107.5 11.5t123.5 43.5v903q0 16 11.5 19.5t56.5 3.5v-977q-76 -37 -159 -52t-155 -15q-90 0 -147 20t-91 66.5t-47.5 121t-13.5 181.5z" />
<glyph unicode="v" horiz-adv-x="749" d="M66 999q-2 6 -2 10q0 9 8 11q12 4 57 4l109 -379q29 -102 54 -202.5t46 -180.5q23 -94 43 -180h2q18 86 41 180q18 80 43 180.5t53 204.5l96 354q4 16 14.5 19.5t57.5 3.5l-285 -1040q-4 -2 -20 -2h-21q-4 0 -13 27.5t-21 72.5z" />
<glyph unicode="w" horiz-adv-x="1153" d="M61 1001q-1 4 -1 8q0 9 8 11q10 4 61 4l98 -408q25 -104 45.5 -196t36.5 -164q18 -82 35 -156h4q6 33 19.5 92.5t29 128t32.5 142.5t32 139l78 361q4 23 24 22h43l96 -391q25 -98 46.5 -185t37.5 -157q20 -82 37 -152h2q6 33 16.5 90.5t25 128t31.5 147.5t34 150l86 385 q2 8 4 13.5t8 7.5t20.5 2h41.5l-123 -520l-123 -520q-8 -2 -17 -2h-22q-4 0 -16.5 31.5t-24.5 84.5l-37 142q-29 100 -52.5 195t-44 175t-34.5 142.5t-23 99.5q-8 -37 -21 -99.5t-31.5 -143.5t-41 -176t-47.5 -195l-63 -254q-12 -2 -21 -2h-24q-4 0 -13.5 27.5t-19.5 72.5 q-12 49 -28.5 114.5t-35 140.5t-38 152.5t-37.5 151.5q-44 172 -93 360z" />
<glyph unicode="x" horiz-adv-x="940" d="M57 0l371 543l-317 469q-4 8 5 10t66 2l125 -182l166 -252q8 12 26.5 39.5t42 62.5t50 76t53.5 78l115 166q4 4 6 7t10 4t23.5 1h44.5l-328 -479l361 -525q6 -9 6 -13q-1 -4 -5 -5q-10 -2 -73 -2l-131 190q-31 45 -62.5 92.5t-59.5 88.5t-50.5 73.5t-32.5 49.5l-207 -308 l-117 -172q-8 -10 -22 -12t-66 -2z" />
<glyph unicode="y" horiz-adv-x="780" d="M12 -350q0 10 5.5 23.5t13.5 19.5q25 -12 59.5 -18.5t56.5 -6.5q66 0 122.5 65.5t97.5 233.5l-281 1032q-6 18 2 21.5t59 3.5l191 -696q14 -53 24.5 -103.5t20.5 -91.5q8 -47 18 -90q8 43 17 90q8 41 18 92t25 105l174 669q4 18 13 21.5t63 3.5l-287 -1094 q-49 -182 -117.5 -253.5t-159.5 -71.5q-59 0 -97 11t-38 34z" />
<glyph unicode="z" horiz-adv-x="794" d="M76 35q0 23 8 33l551 893h-279q-92 0 -159.5 -2.5t-108.5 -6.5q-2 14 -2 21.5v15.5q0 35 23 35h600q2 -2 4 -6l4 -8t2 -11q0 -23 -10 -41l-553 -892h286q111 0 173.5 3t99.5 9v-37q0 -23 -4 -32t-21 -9h-604q-4 2 -6 8q-4 12 -4 27z" />
<glyph unicode="{" horiz-adv-x="600" d="M125 610q0 31 27 45q25 14 44 27.5t33.5 34t22.5 53.5t8 86q0 121 -14.5 222.5t-14.5 207.5q0 70 24 115t67 72.5t101 39t126 11.5q12 -14 12 -41t-22 -27q-53 -2 -97.5 -10t-75 -28.5t-48 -56.5t-17.5 -93q0 -80 13.5 -181.5t13.5 -234.5q0 -111 -38 -162t-93 -72 q59 -20 95 -60t36 -132q0 -139 -13.5 -243.5t-13.5 -200.5q0 -80 16.5 -124t48 -65.5t79 -29t106.5 -11.5q2 -8 3 -14t1 -12q0 -35 -29 -35q-76 0 -131 13t-92 45t-54.5 84t-17.5 130q0 111 14.5 214.5t14.5 232.5q0 86 -37 120.5t-92 44.5q-4 10 -5 19.5t-1 15.5z" />
<glyph unicode="|" horiz-adv-x="776" d="M354 -410v2055q0 18 11.5 21t54.5 3v-2056q0 -16 -12.5 -19.5t-53.5 -3.5z" />
<glyph unicode="}" horiz-adv-x="600" d="M39 -268q0 27 22 26q53 2 97.5 10.5t75 29t48 56t17.5 93.5q0 80 -13.5 181t-13.5 234q0 111 38 162t93 74q-59 18 -95 59t-36 131q0 139 13.5 244t13.5 201q0 80 -16.5 124t-48 65.5t-78.5 28.5t-107 11q-2 8 -3 14.5t-1 12.5q0 35 29 35q150 0 222.5 -58.5t72.5 -214.5 q0 -55 -5.5 -107t-10.5 -105.5t-10 -111t-5 -122.5q0 -86 38 -121t93 -45q6 -18 6 -35q0 -33 -26 -45q-25 -14 -44.5 -27.5t-35 -34t-23.5 -53t-8 -86.5q0 -121 15.5 -222t15.5 -208q0 -68 -23.5 -113.5t-66.5 -73.5t-101.5 -39t-128.5 -11q-10 14 -10 41z" />
<glyph unicode="~" horiz-adv-x="819" d="M27 524q10 18 30.5 40t49 41.5t67.5 32.5t86 13q51 0 86 -17.5t66.5 -38t65.5 -37.5t85 -17q57 0 101.5 25.5t70.5 66.5q16 18 33.5 9t26.5 -34q-14 -20 -35 -43.5t-48.5 -43t-65.5 -33t-89 -13.5q-57 0 -96 17.5t-71 38t-62.5 38t-73.5 17.5q-35 0 -63.5 -10.5 t-50 -23.5t-38 -28.5t-26.5 -27.5q-12 -10 -27.5 -2.5t-21.5 30.5z" />
<glyph unicode="&#xa1;" horiz-adv-x="376" d="M123 971q0 31 19.5 51t50.5 20t47 -19t16 -52q0 -29 -17.5 -50.5t-45.5 -21.5q-33 0 -51.5 21.5t-18.5 50.5zM150 -406l4 1065q2 18 19 24.5t48 6.5l4 -1075q0 -14 -19.5 -17.5t-55.5 -3.5z" />
<glyph unicode="&#xa2;" d="M201 455q0 172 26.5 281.5t70.5 174t99.5 92t112.5 35.5v252q0 23 13.5 30t47.5 7v-285h2q33 0 64 -7t55.5 -16t38.5 -20.5t14 -19.5q0 -10 -3 -26.5t-11 -26.5q-29 23 -60.5 37t-92.5 14q-53 0 -107.5 -16.5t-98.5 -71.5t-72 -159.5t-28 -280.5q0 -141 18.5 -222.5 t53.5 -122.5t85 -51t114 -10q59 0 107 23.5t85 52.5q6 -10 9.5 -23.5t3.5 -23.5t-17.5 -25.5t-46.5 -31t-66.5 -25.5t-80.5 -10h-5v-242q0 -23 -11 -30t-48 -7v281q-61 2 -111.5 19t-86 67.5t-55 142.5t-19.5 244z" />
<glyph unicode="&#xa3;" horiz-adv-x="813" d="M31 571q0 41 3 54.5t19 13.5h144v35q0 168 25.5 274.5t68.5 167t101.5 82t125.5 21.5q86 0 144.5 -28t58.5 -56q0 -27 -14 -50q-41 35 -82 50.5t-107 15.5q-53 0 -100 -17.5t-81 -68.5t-53.5 -144.5t-19.5 -242.5v-39h332q0 -41 -3 -54.5t-20 -13.5h-309q0 -123 4 -250.5 t13 -250.5l419 -7q8 -16 9 -32q0 -14 -12.5 -21.5t-31 -9.5t-39 -1t-36.5 1h-375q-10 170 -14 304t-4 267h-166z" />
<glyph unicode="&#xa5;" d="M89 1428.5q1 3.5 8 4.5t23.5 1h45.5l113 -301q27 -68 55 -147t53 -149.5t42 -120.5t20 -59q2 8 19 58.5t42 120t54.5 149.5t53.5 148l107 286q2 6 5 8.5t10.5 4.5t21.5 2h41l-256 -678h217q0 -35 -6 -47.5t-29 -12.5h-205l-41 -108v-154h283q0 -35 -6 -47t-29 -12h-248 v-352q0 -16 -8 -19.5t-59 -3.5v375h-289q0 35 5 47t28 12h256v150l-45 112h-244q0 35 5 47.5t28 12.5h188l-258 665q-2 4 -1 7.5z" />
<glyph unicode="&#xa6;" horiz-adv-x="458" d="M197 -399v825q0 29 32 29q16 0 35 -6v-830q0 -23 -35 -22h-13t-19 4zM197 686v807q0 27 32 27h15.5t19.5 -4v-811q0 -23 -35 -23h-13t-19 4z" />
<glyph unicode="&#xa7;" horiz-adv-x="784" d="M115 815q0 57 32.5 114.5t106.5 96.5q-12 10 -23 23q-51 51 -73.5 89t-22.5 97q0 92 77 149.5t216 57.5q96 0 158.5 -31t72.5 -55q2 -6 3 -15q0 -25 -21 -41q-41 35 -92 53.5t-127 18.5q-102 0 -158.5 -40t-56.5 -101q0 -47 19.5 -77t58.5 -71q25 -25 61.5 -55.5 t78.5 -64t81 -67.5t65 -62q53 -53 78 -100.5t25 -115.5q0 -57 -35 -114.5t-107 -95.5l25 -23q49 -51 72.5 -89t23.5 -97q0 -92 -77.5 -149.5t-215.5 -57.5q-98 0 -159.5 30.5t-71.5 55.5q-2 6 -2 14q0 27 20 41q41 -35 92.5 -53.5t127.5 -18.5q102 0 158.5 40t56.5 102 q0 47 -19.5 76.5t-58.5 70.5q-25 25 -61.5 55.5t-78.5 64.5t-81 67.5t-66 62.5q-53 53 -77.5 100.5t-24.5 114.5zM180 815q0 -55 21.5 -93t58.5 -81q35 -41 100.5 -92t124.5 -100q53 25 88 77t35 92q0 55 -21.5 93.5t-58.5 81.5q-37 39 -102.5 90t-124.5 100 q-29 -10 -51.5 -30.5t-37.5 -44t-23.5 -48t-8.5 -45.5z" />
<glyph unicode="&#xa8;" horiz-adv-x="413" d="M0 1348q0 27 16.5 47t44.5 20q31 0 49.5 -19.5t18.5 -47.5q0 -31 -19.5 -50.5t-48.5 -19.5q-61 0 -61 70zM287 1348q0 27 16 47t45 20q31 0 48.5 -19.5t17.5 -47.5q0 -31 -18.5 -50.5t-47.5 -19.5q-61 0 -61 70z" />
<glyph unicode="&#xa9;" horiz-adv-x="937" d="M84 1104q0 240 106.5 347.5t290.5 107.5q92 0 162 -23t117 -75t71.5 -139t24.5 -216q0 -221 -101.5 -335t-281.5 -114q-90 0 -161.5 16.5t-123 65.5t-78 136.5t-26.5 228.5zM143 1094q0 -111 21.5 -183.5t61.5 -115.5t98.5 -60.5t134.5 -17.5q154 0 246 98t92 295 q0 113 -21.5 187.5t-61.5 119.5t-98.5 63.5t-130.5 18.5q-78 0 -141 -21.5t-107 -69.5t-69 -125.5t-25 -188.5zM303 1077q0 106 18.5 168t46 93.5t61.5 41t67 9.5q35 0 65.5 -12.5t30.5 -20.5q0 -4 -6 -22.5t-11 -22.5q-16 10 -29.5 17t-39.5 7q-25 0 -51.5 -8t-47 -34.5 t-34 -78t-13.5 -137.5q0 -68 8.5 -106.5t25 -58t39 -25.5t50.5 -6q27 0 51.5 10t43.5 20q4 -6 10 -20t6 -19q0 -10 -36 -28.5t-81 -18.5q-39 0 -70.5 7.5t-55 33t-36 75.5t-12.5 136z" />
<glyph unicode="&#xaa;" horiz-adv-x="706" d="M117 836q0 80 20.5 127t55 72.5t80.5 33.5t98 8q41 0 84 -6t71 -16v194q0 47 -15 76t-38.5 43t-53.5 18.5t-59 4.5q-72 0 -129 -19.5t-88 -36.5q-12 8 -15 29t7 29q29 23 90.5 42t155.5 19q39 0 77 -8t66.5 -29.5t47 -58.5t18.5 -92v-617q-23 -14 -89.5 -35.5 t-152.5 -21.5q-45 0 -87 7t-73.5 32.5t-51 74t-19.5 130.5zM176 827q0 -57 15.5 -92t41 -54t59.5 -25.5t73 -6.5q47 0 93 12.5t68 24.5v309q-29 8 -68.5 15.5t-68.5 7.5q-45 0 -84 -4t-67.5 -22.5t-45 -57.5t-16.5 -107z" />
<glyph unicode="&#xab;" horiz-adv-x="856" d="M76 524q0 6 13 32t34.5 62.5t49.5 80.5t56 89q68 106 156 236q10 0 17.5 -6t13.5 -12q8 -8 12 -17q0 -6 -12.5 -29.5t-33 -57.5t-46 -75t-51.5 -84q-63 -98 -144 -219q82 -127 148 -229q27 -43 53.5 -86t48 -78t33.5 -58.5t12 -27.5q-4 -14 -10 -22q-12 -23 -27 -23 q-92 135 -161 246q-31 47 -59.5 93t-52.5 84t-37 65.5t-13 35.5zM391 512q0 6 13.5 30.5t35 59.5t49 76t56.5 84q68 98 155 221q10 0 18.5 -6t12.5 -12q6 -8 10 -17q0 -6 -12 -28.5t-32.5 -54t-45 -70.5t-51.5 -78q-63 -92 -141 -205q80 -113 145 -203q27 -39 53.5 -76.5 t48 -68.5t34 -51.5t12.5 -24.5q-4 -14 -11 -22q-12 -23 -26 -23q-92 121 -162 219q-31 43 -59.5 84t-52 76t-37 58.5t-13.5 31.5z" />
<glyph unicode="&#xac;" horiz-adv-x="819" d="M68 555q0 14 8 24.5t20 10.5h631v-363q-16 -6 -33 -6q-16 0 -25.5 9.5t-9.5 19.5v272h-585q-4 10 -5 16.5t-1 16.5z" />
<glyph unicode="&#xad;" horiz-adv-x="614" d="M98 543q0 41 3 54t20 13h395q0 -41 -3 -54t-19 -13h-396z" />
<glyph unicode="&#xae;" horiz-adv-x="937" d="M84 1104q0 240 106.5 347.5t290.5 107.5q92 0 162 -23t117 -75t71.5 -139t24.5 -216q0 -221 -101.5 -335t-281.5 -114q-90 0 -161.5 16.5t-123 65.5t-78 136.5t-26.5 228.5zM143 1094q0 -111 21.5 -183.5t61.5 -115.5t98.5 -60.5t134.5 -17.5q154 0 246 98t92 295 q0 113 -21.5 187.5t-61.5 119.5t-98.5 63.5t-130.5 18.5q-78 0 -141 -21.5t-107 -69.5t-69 -125.5t-25 -188.5zM344 836v550q0 2 2 5q4 4 8 4h111q98 0 135 -44t37 -104q0 -121 -96 -155q20 -23 57 -82.5t51 -157.5q0 -16 -14 -16h-39q-12 61 -29.5 105t-35 72.5t-32 45 t-18.5 20.5h-84v-227q0 -14 -15 -15t-38 -1zM397 1126h58q68 0 99.5 33t31.5 86q0 43 -27 72t-102 29h-60v-220z" />
<glyph unicode="&#xaf;" horiz-adv-x="503" d="M0 1315.5v15.5q4 35 29 35h471q4 -10 4 -18.5v-16.5q-4 -33 -29 -33h-471q-4 10 -4 17.5z" />
<glyph unicode="&#xb0;" horiz-adv-x="782" d="M221 1341q0 90 49 133.5t133 43.5q82 0 123 -39t41 -138q0 -86 -47 -130t-131 -44q-37 0 -68.5 7.5t-53 26t-34 52t-12.5 88.5zM281 1335q0 -59 27.5 -84.5t80.5 -25.5q119 0 119 118q0 66 -26.5 91.5t-78.5 25.5q-59 0 -90.5 -26.5t-31.5 -98.5z" />
<glyph unicode="&#xb1;" d="M98 20q0 41 3 54.5t20 13.5h694q0 -41 -3 -54.5t-19 -13.5h-695zM98 557q0 41 3 54.5t20 13.5h305v303q0 16 12.5 19t53.5 3v-325h323q0 -41 -3 -54.5t-19 -13.5h-301v-301q0 -16 -12.5 -19.5t-53.5 -3.5v324h-328z" />
<glyph unicode="&#xb2;" horiz-adv-x="851" d="M125 623q0 12 3 25.5t13 21.5q74 78 157 145.5t152.5 134t115.5 133t46 142.5q0 31 -7 60.5t-26.5 52t-55.5 35.5t-93 13q-96 0 -156.5 -34.5t-99.5 -69.5q-12 12 -16 22.5t-4 22.5q0 14 23.5 35.5t63.5 42t93 35t110 14.5q74 0 121 -18.5t74 -49t37 -70.5t10 -85 q0 -82 -48 -154.5t-118.5 -142.5t-151.5 -137.5t-149 -139.5h502q6 -18 6 -30q0 -35 -27 -35h-569q-4 10 -5 16t-1 15z" />
<glyph unicode="&#xb3;" horiz-adv-x="899" d="M152 659q0 23 24 41q41 -33 90 -48t140 -15q123 0 197.5 54t74.5 149q0 68 -45 111.5t-113 54.5q-41 6 -91 8t-95 2q-4 4 -6 14.5t-2 16.5q0 10 6 20t22 10q41 0 83 -2t73 -6q72 45 100.5 90t28.5 98q0 20 -8 43t-29.5 42.5t-57.5 33t-93 13.5q-86 0 -152 -25t-113 -66 q-18 16 -16 37t12 29q31 29 100.5 59.5t176.5 30.5q72 0 120 -16.5t76.5 -43t41 -60.5t12.5 -66q0 -66 -32 -120t-91 -95q74 -23 116.5 -76t42.5 -129q0 -135 -94 -206t-256 -71q-92 0 -151.5 20.5t-81.5 43.5q-10 10 -10 24z" />
<glyph unicode="&#xb4;" horiz-adv-x="317" d="M0 1241q49 47 98 90t90 77t68 54l27 21q8 0 14 -8.5t10 -19.5t7 -20.5t3 -11.5q-2 -2 -27.5 -23.5t-66.5 -53t-92 -70.5t-104 -76q-4 0 -8.5 6t-8.5 15q-6 8 -10 20z" />
<glyph unicode="&#xb6;" horiz-adv-x="1128" d="M104 868q0 279 105.5 431.5t302.5 152.5q78 0 130 -13.5t99 -37.5v-1381q0 -18 -10 -22t-26 -4q-18 0 -31 6v428q-37 -20 -97.5 -30.5t-103.5 -10.5q-68 0 -134.5 21.5t-118.5 76t-84 147.5t-32 236zM172 870q0 -127 27.5 -207.5t71.5 -128t99.5 -65.5t112.5 -18 q37 -2 94.5 9t96.5 34v862q-18 12 -61.5 22.5t-108.5 10.5q-160 0 -246 -134.5t-86 -384.5zM918 2v1382q0 27 34 27h13.5t19.5 -4v-1387q0 -23 -35 -22h-13t-19 4z" />
<glyph unicode="&#xb7;" horiz-adv-x="405" d="M129 553q0 29 17.5 49.5t48.5 20.5t49 -20.5t18 -49.5q0 -31 -19.5 -51.5t-47.5 -20.5q-33 0 -49.5 19.5t-16.5 52.5z" />
<glyph unicode="&#xb8;" horiz-adv-x="235" d="M0 -358q2 12 4 22q4 23 12 31q10 10 34 -1t52 -11q31 0 53.5 15t22.5 60q0 47 -22.5 60.5t-51.5 13.5q-14 0 -26 -2t-23 -4q-12 -4 -24 -6l39 186h57l-27 -131q2 0 9 2q4 0 11 1t17 1q35 0 67 -24.5t32 -83.5q0 -43 -12.5 -71t-32 -44t-43 -22.5t-46.5 -6.5q-45 0 -71 6 q-16 4 -31 9z" />
<glyph unicode="&#xb9;" horiz-adv-x="878" d="M152 621q0 37 26 36h266v721l-276 -59q-4 6 -7 13t-3 20q0 25 28 34q37 8 84 20.5t92.5 23t78 17.5t42.5 7h12.5t16.5 -4v-793h211q4 -10 4 -18v-14q0 -33 -25 -33h-544q-6 12 -6 29z" />
<glyph unicode="&#xba;" horiz-adv-x="731" d="M98 1020q0 117 20.5 198.5t57.5 134t88 77t113 24.5q63 0 111.5 -19.5t80 -68.5t48 -133t16.5 -213q0 -217 -72 -321.5t-205 -104.5q-59 0 -106 16.5t-81 63.5t-52.5 130t-18.5 216zM162 1010q0 -106 13 -175t38 -109t60.5 -55.5t82.5 -15.5q100 0 157.5 92.5t57.5 278.5 q0 109 -13 179.5t-37.5 111.5t-59.5 57.5t-80 16.5q-51 0 -91 -19.5t-68.5 -64.5t-44 -118t-15.5 -179z" />
<glyph unicode="&#xbb;" horiz-adv-x="849" d="M104 86q0 4 12.5 24.5t34 51.5t47 68.5t54.5 76.5l147 205q-80 113 -143 205q-27 39 -52.5 78t-45 70.5t-31.5 54t-12 28.5q0 10 6 16.5t14 10.5q8 6 21 8q86 -123 153 -221q29 -43 57.5 -84t50 -76t35 -59.5t13.5 -30.5q0 -8 -14.5 -32.5t-37 -59.5t-51 -76t-59.5 -84 q-70 -98 -160 -219q-12 4 -20 10q-18 10 -19 35zM414 45q0 4 12 27.5t32.5 57.5t46 77t54.5 86q66 102 148 231q-80 121 -144 219q-27 43 -52.5 84t-45 75t-31.5 57.5t-12 29.5q0 10 6 16.5t14 10.5q8 6 23 8q86 -129 153 -236q29 -45 58 -89t50.5 -80.5t34.5 -62.5t13 -32 q0 -8 -14.5 -35.5t-37 -65.5t-51 -84t-59.5 -93q-70 -111 -159 -246q-12 2 -21 8q-18 10 -18 37z" />
<glyph unicode="&#xbc;" horiz-adv-x="1808" d="M152 621q0 37 26 36h266v721l-276 -59q-4 6 -7 13t-3 20q0 25 28 34q37 8 84 20.5t92.5 23t78 17.5t42.5 7h12.5t16.5 -4v-793h211q4 -10 4 -18v-14q0 -33 -25 -33h-544q-6 12 -6 29zM465 16l923 1426q6 14 23 14q25 0 41 -31l-926 -1431q-4 -10 -18 -10t-26.5 9 t-16.5 23zM1004 188q0 10 16 60q20 66 64.5 148.5t97.5 165.5t113.5 157.5t115.5 126.5q18 18 48 18q16 0 28 -4v-633h162q6 -12 6 -35q0 -10 -4 -20t-14 -10h-150v-140q0 -29 -41 -28q-16 0 -24 2v166h-410q-8 16 -8 26zM1082 225h340l2 539q-41 -37 -90 -98.5t-98.5 -134 t-90.5 -151.5t-63 -155z" />
<glyph unicode="&#xbd;" horiz-adv-x="1886" d="M152 621q0 37 26 36h266v721l-276 -59q-4 6 -7 13t-3 20q0 25 28 34q37 8 84 20.5t92.5 23t78 17.5t42.5 7h12.5t16.5 -4v-793h211q4 -10 4 -18v-14q0 -33 -25 -33h-544q-6 12 -6 29zM465 16l924 1426q6 14 22 14q25 0 41 -31l-926 -1431q-4 -10 -18 -10t-26.5 9 t-16.5 23zM1133 31q0 12 3 25.5t13 21.5q74 78 157 145.5t152.5 134t115.5 133t46 142.5q0 31 -7 60.5t-26.5 52t-55.5 36t-93 13.5q-96 0 -156.5 -35t-99.5 -70q-20 20 -21 45q0 14 23.5 36t63.5 42.5t93.5 34.5t110.5 14q74 0 121 -18.5t73.5 -49t37 -70.5t10.5 -85 q0 -82 -48.5 -154.5t-119 -142.5t-151.5 -137.5t-148 -138.5h502q6 -18 6 -31q0 -35 -27 -35h-569q-4 10 -5 16.5t-1 14.5z" />
<glyph unicode="&#xbe;" horiz-adv-x="1802" d="M152 659q0 23 24 41q41 -33 90 -48t140 -15q123 0 197.5 54t74.5 149q0 68 -45 111.5t-113 54.5q-41 6 -91 8t-95 2q-4 4 -6 14.5t-2 16.5q0 10 6 20t22 10q41 0 83 -2t73 -6q72 45 100.5 90t28.5 98q0 20 -8 43t-29.5 42.5t-57.5 33t-93 13.5q-86 0 -152 -25t-113 -66 q-18 16 -16 37t12 29q31 29 100.5 59.5t176.5 30.5q72 0 120 -16.5t76.5 -43t41 -60.5t12.5 -66q0 -66 -32 -120t-91 -95q74 -23 116.5 -76t42.5 -129q0 -135 -94 -206t-256 -71q-92 0 -151.5 20.5t-81.5 43.5q-10 10 -10 24zM494 16l923 1426q6 14 23 14q25 0 41 -31 l-926 -1431q-4 -10 -18 -10t-26.5 9t-16.5 23zM997 188q0 10 16 60q20 66 64.5 148.5t97.5 165.5t113.5 157.5t115.5 126.5q18 18 48 18q16 0 28 -4v-633h162q6 -12 6 -35q0 -10 -4 -20t-14 -10h-150v-140q0 -29 -41 -28q-16 0 -24 2v166h-410q-8 16 -8 26zM1075 225h340 l2 539q-41 -37 -90 -98.5t-98.5 -134t-90.5 -151.5t-63 -155z" />
<glyph unicode="&#xbf;" horiz-adv-x="610" d="M29 -104q0 86 29.5 157.5t69.5 131t82 109.5t69 93q29 49 39 94t10 82q0 45 -7.5 72t-3.5 31q6 10 25.5 10t36.5 -4q4 -14 8 -31q4 -14 7 -33.5t3 -44.5q0 -41 -12 -92t-47 -111q-29 -49 -70 -98t-78.5 -103.5t-64.5 -118t-27 -140.5q0 -80 26 -126t60.5 -69.5t73.5 -29 t66 -5.5q127 0 217 66q2 -4 4 -16.5t2 -34.5q0 -10 -18.5 -24.5t-51.5 -27t-75 -21.5t-87 -9q-49 0 -100 11t-92 44t-67.5 90t-26.5 148zM276 967q0 31 18.5 51t49.5 20q33 0 48.5 -19t15.5 -52q0 -29 -16.5 -49.5t-47.5 -20.5q-33 0 -50.5 20.5t-17.5 49.5z" />
<glyph unicode="&#xc0;" horiz-adv-x="892" d="M18 0l404 1436q0 8 18 8q20 0 27 -6l405 -1415q6 -25 -24 -25h-20.5t-22.5 2l-119 424h-479l-111 -410q-4 -10 -12 -13t-25 -3h-15t-26 2zM213 1848q0 2 3 12t7 20.5t10.5 18.5t14.5 8l21 -17q20 -18 51.5 -43.5t67.5 -55t66.5 -56.5t52 -46t23.5 -22q-4 -12 -10 -20 q-4 -8 -9 -14t-7 -6l-21 16q-22 16 -54 39.5t-69.5 52.5t-69.5 53.5t-54.5 41t-22.5 18.5zM223 487h447l-125 451q-18 68 -35.5 132.5t-31 118.5t-23 95t-11.5 59q-2 -18 -11 -59t-22.5 -95t-29.5 -118.5t-35 -132.5z" />
<glyph unicode="&#xc1;" horiz-adv-x="892" d="M18 0l404 1436q0 8 18 8q20 0 27 -6l405 -1415q6 -25 -24 -25h-20.5t-22.5 2l-119 424h-479l-111 -410q-4 -10 -12 -13t-25 -3h-15t-26 2zM223 487h447l-125 451q-18 68 -35.5 132.5t-31 118.5t-23 95t-11.5 59q-2 -18 -11 -59t-22.5 -95t-29.5 -118.5t-35 -132.5z M371 1651q49 47 98 90t90 77t68 54l27 21q8 0 14 -8.5t10 -19.5t7 -20.5t3 -11.5q-2 -2 -27.5 -23.5t-66.5 -53t-92 -70.5t-104 -76q-4 0 -8.5 6t-8.5 15q-6 8 -10 20z" />
<glyph unicode="&#xc2;" horiz-adv-x="892" d="M18 0l404 1436q0 8 18 8q20 0 27 -6l405 -1415q6 -25 -24 -25h-20.5t-22.5 2l-119 424h-479l-111 -410q-4 -10 -12 -13t-25 -3h-15t-26 2zM201 1645l225 217q8 4 21 4q16 0 30 -16l99 -99q37 -37 68.5 -69.5t31.5 -34.5q0 -4 -17.5 -19.5t-39.5 -15.5q-49 49 -86 90 q-33 35 -59.5 64.5t-28.5 34.5q-51 -53 -92 -95q-35 -35 -66 -63.5t-37 -28.5q-25 0 -36 13.5t-13 17.5zM223 487h447l-125 451q-18 68 -35.5 132.5t-31 118.5t-23 95t-11.5 59q-2 -18 -11 -59t-22.5 -95t-29.5 -118.5t-35 -132.5z" />
<glyph unicode="&#xc3;" horiz-adv-x="892" d="M18 0l404 1436q0 8 18 8q20 0 27 -6l405 -1415q6 -25 -24 -25h-20.5t-22.5 2l-119 424h-479l-111 -410q-4 -10 -12 -13t-25 -3h-15t-26 2zM156 1688q47 80 92 103.5t98 23.5q37 0 59.5 -17.5t41 -38t39 -38t55.5 -17.5q43 0 68.5 16.5t42 35t24.5 35t17 16.5q8 0 14 -6.5 t10 -14.5q6 -8 10 -18q-10 -20 -24.5 -43t-37 -42.5t-54 -32.5t-74.5 -13q-47 0 -74.5 18.5t-47 41t-38 41t-45.5 18.5q-31 0 -53.5 -16.5t-38.5 -36t-26.5 -36t-16.5 -16.5q-14 0 -29 19q-8 8 -12 18zM223 487h447l-125 451q-18 68 -35.5 132.5t-31 118.5t-23 95t-11.5 59 q-2 -18 -11 -59t-22.5 -95t-29.5 -118.5t-35 -132.5z" />
<glyph unicode="&#xc4;" horiz-adv-x="892" d="M18 0l404 1436q0 8 18 8q20 0 27 -6l405 -1415q6 -25 -24 -25h-20.5t-22.5 2l-119 424h-479l-111 -410q-4 -10 -12 -13t-25 -3h-15t-26 2zM223 487h447l-125 451q-18 68 -35.5 132.5t-31 118.5t-23 95t-11.5 59q-2 -18 -11 -59t-22.5 -95t-29.5 -118.5t-35 -132.5z M238 1758q0 27 16.5 47t44.5 20q31 0 49.5 -19.5t18.5 -47.5q0 -31 -19.5 -50.5t-48.5 -19.5q-61 0 -61 70zM525 1758q0 27 16 47t45 20q31 0 48.5 -19.5t17.5 -47.5q0 -31 -18.5 -50.5t-47.5 -19.5q-61 0 -61 70z" />
<glyph unicode="&#xc5;" horiz-adv-x="892" d="M18 0l404 1436q0 8 18 8q20 0 27 -6l405 -1415q6 -25 -24 -25h-20.5t-22.5 2l-119 424h-479l-111 -410q-4 -10 -12 -13t-25 -3h-15t-26 2zM223 487h447l-125 451q-18 68 -35.5 132.5t-31 118.5t-23 95t-11.5 59q-2 -18 -11 -59t-22.5 -95t-29.5 -118.5t-35 -132.5z M270 1778q0 92 49 134t131 42q84 0 124 -39t40 -137q0 -86 -46 -130t-132 -44q-76 0 -121 38t-45 136zM329 1774q0 -53 28 -82t81 -29q55 0 86 29t31 88q0 66 -27 90.5t-76 24.5q-59 0 -91 -25.5t-32 -95.5z" />
<glyph unicode="&#xc6;" horiz-adv-x="1363" d="M39 0l731 1419q4 14 23 15h499q0 -41 -2 -53.5t-12 -12.5h-430v-551h403q0 -41 -2 -52t-16 -11h-385v-688h446q0 -45 -2 -55.5t-16 -10.5h-496v424h-452l-213 -410q-4 -10 -12.5 -13t-24.5 -3h-14.5t-24.5 2zM360 487h420v844q-18 -41 -41.5 -91t-49 -103.5t-51.5 -106.5 t-48 -100z" />
<glyph unicode="&#xc7;" horiz-adv-x="745" d="M92 641q0 184 16.5 317.5t45 223.5t67.5 144t82 82t90 37t92 9t80 -10t59.5 -25.5t38 -32t13.5 -30.5q0 -10 -5 -22.5t-12 -20.5q-6 6 -20 18t-37.5 24.5t-53.5 23t-63 10.5q-37 0 -75.5 -8.5t-74.5 -36t-66.5 -77.5t-54.5 -134t-37 -207t-13 -293q0 -193 24.5 -307.5 t64.5 -176t88 -80t97 -18.5q39 0 76 11.5t67.5 27.5t54 36.5t36.5 39.5q6 -10 11 -22.5t5 -24.5q0 -18 -18.5 -41t-51 -44.5t-76.5 -36.5t-93 -17l-21 -105q2 0 8 2q4 0 11.5 1t17.5 1q35 0 66.5 -24.5t31.5 -83.5q0 -43 -12 -71t-31.5 -44t-43 -22.5t-46.5 -6.5 q-45 0 -72 6q-16 4 -30 9q2 12 4 22q4 23 12 31q10 10 33.5 -1t52.5 -11q31 0 53.5 15t22.5 60q0 47 -22.5 60.5t-51.5 13.5q-14 0 -26.5 -2t-22.5 -4q-12 -4 -25 -6l33 162q-49 2 -102 24.5t-97.5 92t-72 198.5t-27.5 344z" />
<glyph unicode="&#xc8;" horiz-adv-x="718" d="M137 0v1411q0 4 2 10q4 12 21 13h489q0 -41 -2 -53.5t-12 -12.5h-430v-551h401q0 -41 -2 -52t-16 -11h-383v-688h446q0 -45 -2 -55.5t-16 -10.5h-496zM184 1848q0 2 3 12t7 20.5t10.5 18.5t14.5 8l21 -17q20 -18 51.5 -43.5t67.5 -55t66.5 -56.5t52 -46t23.5 -22 q-4 -12 -10 -20q-4 -8 -9 -14t-7 -6l-21 16q-22 16 -54 39.5t-69.5 52.5t-69.5 53.5t-54.5 41t-22.5 18.5z" />
<glyph unicode="&#xc9;" horiz-adv-x="718" d="M137 0v1411q0 4 2 10q4 12 21 13h489q0 -41 -2 -53.5t-12 -12.5h-430v-551h401q0 -41 -2 -52t-16 -11h-383v-688h446q0 -45 -2 -55.5t-16 -10.5h-496zM344 1651q49 47 98 90t90 77t68 54l27 21q8 0 14 -8.5t10 -19.5t7 -20.5t3 -11.5q-2 -2 -27.5 -23.5t-66.5 -53 t-92 -70.5t-104 -76q-4 0 -8.5 6t-8.5 15q-6 8 -10 20z" />
<glyph unicode="&#xca;" horiz-adv-x="718" d="M137 0v1411q0 4 2 10q4 12 21 13h489q0 -41 -2 -53.5t-12 -12.5h-430v-551h401q0 -41 -2 -52t-16 -11h-383v-688h446q0 -45 -2 -55.5t-16 -10.5h-496zM174 1645l225 217q8 4 21 4q16 0 30 -16l99 -99q37 -37 68.5 -69.5t31.5 -34.5q0 -4 -17.5 -19.5t-39.5 -15.5 q-49 49 -86 90q-33 35 -59.5 64.5t-28.5 34.5q-51 -53 -92 -95q-35 -35 -66 -63.5t-37 -28.5q-25 0 -36 13.5t-13 17.5z" />
<glyph unicode="&#xcb;" horiz-adv-x="718" d="M137 0v1411q0 4 2 10q4 12 21 13h489q0 -41 -2 -53.5t-12 -12.5h-430v-551h401q0 -41 -2 -52t-16 -11h-383v-688h446q0 -45 -2 -55.5t-16 -10.5h-496zM211 1758q0 27 16.5 47t44.5 20q31 0 49.5 -19.5t18.5 -47.5q0 -31 -19.5 -50.5t-48.5 -19.5q-61 0 -61 70zM498 1758 q0 27 16 47t45 20q31 0 48.5 -19.5t17.5 -47.5q0 -31 -18.5 -50.5t-47.5 -19.5q-61 0 -61 70z" />
<glyph unicode="&#xcc;" horiz-adv-x="329" d="M-66 1848q0 2 3 12t7 20.5t10.5 18.5t14.5 8l21 -17q20 -18 51.5 -43.5t67.5 -55t66.5 -56.5t52 -46t23.5 -22q-4 -12 -10 -20q-4 -8 -9 -14t-7 -6l-21 16q-22 16 -54 39.5t-69.5 52.5t-69.5 53.5t-54.5 41t-22.5 18.5zM131 0v1395q0 29 9.5 34t58.5 5v-1411 q0 -16 -9.5 -19.5t-58.5 -3.5z" />
<glyph unicode="&#xcd;" horiz-adv-x="329" d="M92 1651q49 47 98 90t90 77t68 54l27 21q8 0 14 -8.5t10 -19.5t7 -20.5t3 -11.5q-2 -2 -27.5 -23.5t-66.5 -53t-92 -70.5t-104 -76q-4 0 -8.5 6t-8.5 15q-6 8 -10 20zM131 0v1395q0 29 9.5 34t58.5 5v-1411q0 -16 -9.5 -19.5t-58.5 -3.5z" />
<glyph unicode="&#xce;" horiz-adv-x="329" d="M-78 1645l225 217q8 4 21 4q16 0 30 -16l99 -99q37 -37 68.5 -69.5t31.5 -34.5q0 -4 -17.5 -19.5t-39.5 -15.5q-49 49 -86 90q-33 35 -59.5 64.5t-28.5 34.5q-51 -53 -92 -95q-35 -35 -66 -63.5t-37 -28.5q-25 0 -36 13.5t-13 17.5zM131 0v1395q0 29 9.5 34t58.5 5v-1411 q0 -16 -9.5 -19.5t-58.5 -3.5z" />
<glyph unicode="&#xcf;" horiz-adv-x="329" d="M-39 1758q0 27 16.5 47t44.5 20q31 0 49.5 -19.5t18.5 -47.5q0 -31 -19.5 -50.5t-48.5 -19.5q-61 0 -61 70zM131 0v1395q0 29 9.5 34t58.5 5v-1411q0 -16 -9.5 -19.5t-58.5 -3.5zM248 1758q0 27 16 47t45 20q31 0 48.5 -19.5t17.5 -47.5q0 -31 -18.5 -50.5t-47.5 -19.5 q-61 0 -61 70z" />
<glyph unicode="&#xd0;" horiz-adv-x="880" d="M37 727q0 41 3 53.5t19 12.5h76v608q0 14 9.5 23.5t39.5 9.5h207q98 0 172 -36t124 -113t75.5 -197.5t25.5 -290.5q0 -258 -33.5 -415t-91 -242t-132 -112.5t-154.5 -27.5h-242v727h-98zM203 66h174q66 0 127 24.5t109.5 101t77 221t28.5 384.5q0 299 -81 435t-255 136 h-180v-575h254q0 -41 -3 -53.5t-20 -12.5h-231v-661z" />
<glyph unicode="&#xd1;" horiz-adv-x="954" d="M131 0v1411q0 23 23 23h41l258 -576q2 -4 20.5 -48t46 -109.5t62 -144.5t67.5 -154.5t61.5 -140t45.5 -101.5v1251q0 16 8 19.5t59 3.5v-1411q0 -23 -22 -23h-41l-262 586q-2 4 -19.5 44t-45 102.5t-61.5 139t-67 152.5t-62.5 142.5t-47.5 111.5q0 -43 1 -114.5t1 -154.5 t1 -167t1 -154v-115v-47v-503q0 -16 -8.5 -19.5t-59.5 -3.5zM209 1688q47 80 92 103.5t98 23.5q37 0 59.5 -17.5t41 -38t39 -38t55.5 -17.5q43 0 68.5 16.5t42 35t24.5 35t17 16.5q8 0 14 -6.5t10 -14.5q6 -8 10 -18q-10 -20 -24.5 -43t-37 -42.5t-54 -32.5t-74.5 -13 q-47 0 -74.5 18.5t-47 41t-38 41t-45.5 18.5q-31 0 -53.5 -16.5t-38.5 -36t-26.5 -36t-16.5 -16.5q-14 0 -29 19q-8 8 -12 18z" />
<glyph unicode="&#xd2;" horiz-adv-x="942" d="M92 727q0 197 24.5 335t74 225t123 127t173.5 40q98 0 168 -38t113 -124t62.5 -225t19.5 -340q0 -203 -22.5 -345t-68.5 -231.5t-120 -130t-174 -40.5q-98 0 -168 36.5t-116 123.5t-67.5 230.5t-21.5 356.5zM164 700q0 -180 17.5 -304t53 -201.5t93 -112.5t137.5 -35 q82 0 142.5 36t98 118t56 212t18.5 320q0 184 -17.5 309t-53 202t-91 109.5t-133.5 32.5q-82 0 -142 -35.5t-100 -117.5t-59.5 -212.5t-19.5 -320.5zM262 1848q0 2 3 12t7 20.5t10.5 18.5t14.5 8l21 -17q20 -18 51.5 -43.5t67.5 -55t66.5 -56.5t52 -46t23.5 -22 q-4 -12 -10 -20q-4 -8 -9 -14t-7 -6l-21 16q-22 16 -54 39.5t-69.5 52.5t-69.5 53.5t-54.5 41t-22.5 18.5z" />
<glyph unicode="&#xd3;" horiz-adv-x="942" d="M92 727q0 197 24.5 335t74 225t123 127t173.5 40q98 0 168 -38t113 -124t62.5 -225t19.5 -340q0 -203 -22.5 -345t-68.5 -231.5t-120 -130t-174 -40.5q-98 0 -168 36.5t-116 123.5t-67.5 230.5t-21.5 356.5zM164 700q0 -180 17.5 -304t53 -201.5t93 -112.5t137.5 -35 q82 0 142.5 36t98 118t56 212t18.5 320q0 184 -17.5 309t-53 202t-91 109.5t-133.5 32.5q-82 0 -142 -35.5t-100 -117.5t-59.5 -212.5t-19.5 -320.5zM420 1651q49 47 98 90t90 77t68 54l27 21q8 0 14 -8.5t10 -19.5t7 -20.5t3 -11.5q-2 -2 -27.5 -23.5t-66.5 -53t-92 -70.5 t-104 -76q-4 0 -8.5 6t-8.5 15q-6 8 -10 20z" />
<glyph unicode="&#xd4;" horiz-adv-x="942" d="M92 727q0 197 24.5 335t74 225t123 127t173.5 40q98 0 168 -38t113 -124t62.5 -225t19.5 -340q0 -203 -22.5 -345t-68.5 -231.5t-120 -130t-174 -40.5q-98 0 -168 36.5t-116 123.5t-67.5 230.5t-21.5 356.5zM164 700q0 -180 17.5 -304t53 -201.5t93 -112.5t137.5 -35 q82 0 142.5 36t98 118t56 212t18.5 320q0 184 -17.5 309t-53 202t-91 109.5t-133.5 32.5q-82 0 -142 -35.5t-100 -117.5t-59.5 -212.5t-19.5 -320.5zM250 1645l225 217q8 4 21 4q16 0 30 -16l99 -99q37 -37 68.5 -69.5t31.5 -34.5q0 -4 -17.5 -19.5t-39.5 -15.5 q-49 49 -86 90q-33 35 -59.5 64.5t-28.5 34.5q-51 -53 -92 -95q-35 -35 -66 -63.5t-37 -28.5q-25 0 -36 13.5t-13 17.5z" />
<glyph unicode="&#xd5;" horiz-adv-x="942" d="M92 727q0 197 24.5 335t74 225t123 127t173.5 40q98 0 168 -38t113 -124t62.5 -225t19.5 -340q0 -203 -22.5 -345t-68.5 -231.5t-120 -130t-174 -40.5q-98 0 -168 36.5t-116 123.5t-67.5 230.5t-21.5 356.5zM164 700q0 -180 17.5 -304t53 -201.5t93 -112.5t137.5 -35 q82 0 142.5 36t98 118t56 212t18.5 320q0 184 -17.5 309t-53 202t-91 109.5t-133.5 32.5q-82 0 -142 -35.5t-100 -117.5t-59.5 -212.5t-19.5 -320.5zM205 1688q47 80 92 103.5t98 23.5q37 0 59.5 -17.5t41 -38t39 -38t55.5 -17.5q43 0 68.5 16.5t42 35t24.5 35t17 16.5 q8 0 14 -6.5t10 -14.5q6 -8 10 -18q-10 -20 -24.5 -43t-37 -42.5t-54 -32.5t-74.5 -13q-47 0 -74.5 18.5t-47 41t-38 41t-45.5 18.5q-31 0 -53.5 -16.5t-38.5 -36t-26.5 -36t-16.5 -16.5q-14 0 -29 19q-8 8 -12 18z" />
<glyph unicode="&#xd6;" horiz-adv-x="942" d="M92 727q0 197 24.5 335t74 225t123 127t173.5 40q98 0 168 -38t113 -124t62.5 -225t19.5 -340q0 -203 -22.5 -345t-68.5 -231.5t-120 -130t-174 -40.5q-98 0 -168 36.5t-116 123.5t-67.5 230.5t-21.5 356.5zM164 700q0 -180 17.5 -304t53 -201.5t93 -112.5t137.5 -35 q82 0 142.5 36t98 118t56 212t18.5 320q0 184 -17.5 309t-53 202t-91 109.5t-133.5 32.5q-82 0 -142 -35.5t-100 -117.5t-59.5 -212.5t-19.5 -320.5zM287 1758q0 27 16.5 47t44.5 20q31 0 49.5 -19.5t18.5 -47.5q0 -31 -19.5 -50.5t-48.5 -19.5q-61 0 -61 70zM574 1758 q0 27 16 47t45 20q31 0 48.5 -19.5t17.5 -47.5q0 -31 -18.5 -50.5t-47.5 -19.5q-61 0 -61 70z" />
<glyph unicode="&#xd7;" d="M207 346l201 229l-201 232q29 29 40 36t21 -5l185 -211l186 211q12 12 23.5 5t39.5 -36l-204 -232l202 -229q-29 -29 -39 -36t-24 5l-184 209l-183 -209q-12 -12 -23 -5t-40 36z" />
<glyph unicode="&#xd8;" horiz-adv-x="954" d="M98 727q0 197 23.5 335t72 225t122 127t171.5 40q74 0 131.5 -20.5t100.5 -67.5l43 107q12 0 22 -5q10 -4 17.5 -8t9.5 -12q0 -2 -6 -17.5t-13.5 -37t-16.5 -44t-15 -36.5q51 -86 73.5 -228.5t22.5 -357.5q0 -203 -22.5 -345t-69.5 -231.5t-120 -130t-173 -40.5 q-78 0 -137.5 21.5t-102.5 70.5q-14 -33 -29.5 -68t-15.5 -39q-4 0 -24.5 3t-24.5 22q0 2 6.5 18.5t15.5 38t18 44t16 36.5q-49 86 -72 231.5t-23 368.5zM168 700q0 -360 72 -510l438 1115q-35 43 -82 62t-107 19q-80 0 -140 -35.5t-100 -117.5t-60.5 -212.5t-20.5 -320.5z M274 133q68 -86 193 -86q82 0 142.5 35t100.5 114.5t58 210.5t18 326q0 186 -17 312t-56 202q-23 -57 -61 -153.5t-83 -211t-93 -235.5t-89 -225.5t-71.5 -182t-41.5 -106.5z" />
<glyph unicode="&#xd9;" horiz-adv-x="976" d="M131 457v954q0 16 8 19.5t60 3.5v-977q0 -80 9 -155t40 -132t91 -91t165 -34q82 0 159.5 17.5t112.5 33.5v1317q0 16 11.5 18.5t58.5 2.5v-1387q-20 -12 -56 -24.5t-82 -21.5t-98.5 -15t-105.5 -6q-127 0 -202 38.5t-112.5 105t-48 152.5t-10.5 181zM272 1848q0 2 3 12 t7 20.5t10.5 18.5t14.5 8l21 -17q20 -18 51.5 -43.5t67.5 -55t66.5 -56.5t52 -46t23.5 -22q-4 -12 -10 -20q-4 -8 -9 -14t-7 -6l-21 16q-22 16 -54 39.5t-69.5 52.5t-69.5 53.5t-54.5 41t-22.5 18.5z" />
<glyph unicode="&#xda;" horiz-adv-x="976" d="M131 457v954q0 16 8 19.5t60 3.5v-977q0 -80 9 -155t40 -132t91 -91t165 -34q82 0 159.5 17.5t112.5 33.5v1317q0 16 11.5 18.5t58.5 2.5v-1387q-20 -12 -56 -24.5t-82 -21.5t-98.5 -15t-105.5 -6q-127 0 -202 38.5t-112.5 105t-48 152.5t-10.5 181zM432 1651 q49 47 98 90t90 77t68 54l27 21q8 0 14 -8.5t10 -19.5t7 -20.5t3 -11.5q-2 -2 -27.5 -23.5t-66.5 -53t-92 -70.5t-104 -76q-4 0 -8.5 6t-8.5 15q-6 8 -10 20z" />
<glyph unicode="&#xdb;" horiz-adv-x="976" d="M131 457v954q0 16 8 19.5t60 3.5v-977q0 -80 9 -155t40 -132t91 -91t165 -34q82 0 159.5 17.5t112.5 33.5v1317q0 16 11.5 18.5t58.5 2.5v-1387q-20 -12 -56 -24.5t-82 -21.5t-98.5 -15t-105.5 -6q-127 0 -202 38.5t-112.5 105t-48 152.5t-10.5 181zM262 1645l225 217 q8 4 21 4q16 0 30 -16l99 -99q37 -37 68.5 -69.5t31.5 -34.5q0 -4 -17.5 -19.5t-39.5 -15.5q-49 49 -86 90q-33 35 -59.5 64.5t-28.5 34.5q-51 -53 -92 -95q-35 -35 -66 -63.5t-37 -28.5q-25 0 -36 13.5t-13 17.5z" />
<glyph unicode="&#xdc;" horiz-adv-x="976" d="M131 457v954q0 16 8 19.5t60 3.5v-977q0 -80 9 -155t40 -132t91 -91t165 -34q82 0 159.5 17.5t112.5 33.5v1317q0 16 11.5 18.5t58.5 2.5v-1387q-20 -12 -56 -24.5t-82 -21.5t-98.5 -15t-105.5 -6q-127 0 -202 38.5t-112.5 105t-48 152.5t-10.5 181zM299 1758 q0 27 16.5 47t44.5 20q31 0 49.5 -19.5t18.5 -47.5q0 -31 -19.5 -50.5t-48.5 -19.5q-61 0 -61 70zM586 1758q0 27 16 47t45 20q31 0 48.5 -19.5t17.5 -47.5q0 -31 -18.5 -50.5t-47.5 -19.5q-61 0 -61 70z" />
<glyph unicode="&#xdd;" horiz-adv-x="733" d="M12 1421q-4 10 6.5 11.5t67.5 1.5l115 -301q27 -68 56.5 -151t55 -155.5t42 -123t16.5 -52.5q0 2 17.5 52.5t43 122t55 154.5t54.5 153l106 286q4 10 13.5 12.5t62.5 2.5l-320 -850v-561q0 -16 -8 -19.5t-59 -3.5v588zM301 1651q49 47 98 90t90 77t68 54l27 21 q8 0 14 -8.5t10 -19.5t7 -20.5t3 -11.5q-2 -2 -27.5 -23.5t-66.5 -53t-92 -70.5t-104 -76q-4 0 -8.5 6t-8.5 15q-6 8 -10 20z" />
<glyph unicode="&#xde;" horiz-adv-x="774" d="M131 0v1413q0 16 12.5 18.5t34.5 2.5h21v-273h176q96 0 161.5 -30.5t105.5 -82t57.5 -120t17.5 -144.5q0 -217 -94.5 -323.5t-262.5 -106.5h-161v-331q0 -16 -9.5 -19.5t-58.5 -3.5zM199 422h33.5t54 -1t51.5 -1h22q147 0 217 98t70 268q0 63 -13 120t-45 100t-85 67.5 t-133 24.5h-172v-676z" />
<glyph unicode="&#xdf;" horiz-adv-x="972" d="M119 -2q2 8 6 20q4 10 6 24.5t2 33.5v1048q0 88 22.5 148.5t63.5 98.5t98.5 54.5t128.5 16.5q111 0 185 -30t120 -74t65.5 -94t19.5 -91q0 -47 -21.5 -82t-55.5 -61.5t-72 -49t-71.5 -47t-55 -51t-21.5 -63.5q0 -41 29.5 -74t73.5 -64.5t95 -67.5t95.5 -81t74 -102.5 t29.5 -135.5q0 -147 -85 -219.5t-226 -72.5q-55 0 -99.5 9t-75 22.5t-47 27.5t-16.5 25q0 18 9.5 32.5t13.5 16.5q37 -35 85 -52.5t126 -17.5q51 0 95 12.5t77.5 40t53 70.5t19.5 102q0 66 -29.5 117t-73.5 93t-95.5 78t-95.5 73t-73.5 77t-29.5 89q0 47 21.5 80.5 t55.5 60.5t71.5 49.5t71.5 46t55.5 52t21.5 67.5q0 35 -17.5 75t-54.5 73.5t-96 55t-143 21.5q-129 0 -191.5 -66.5t-62.5 -230.5v-1052q0 -23 -8.5 -34t-30.5 -11q-18 0 -31 6q-8 4 -12 8z" />
<glyph unicode="&#xe0;" horiz-adv-x="774" d="M86 279q0 109 28.5 174t76 100t106.5 46t121 11q49 0 97 -5t85 -15v194q0 61 -14.5 99.5t-40 60t-61 28.5t-76.5 7q-111 0 -193 -17.5t-119 -35.5q-10 19 -10 37q0 25 12 32q35 16 125 32.5t201 16.5q117 0 179.5 -54t62.5 -193v-131q0 -176 -3.5 -332t-7.5 -279 q-14 -8 -36.5 -21.5t-56.5 -25.5t-78 -20t-101 -8q-55 -2 -108.5 6t-95.5 38.5t-67.5 90t-25.5 164.5zM156 281q0 -86 20.5 -134.5t54 -72t76.5 -27.5t90 -4q66 0 118 18.5t73 36.5q6 78 9 198.5t3 235.5q-37 10 -83 15.5t-81 5.5q-53 0 -104 -7t-90 -35t-62.5 -82 t-23.5 -148zM162 1438q0 2 3 12t7 20.5t10.5 18.5t14.5 8l21 -17q20 -18 51.5 -43.5t67.5 -55t66.5 -56.5t52 -46t23.5 -22q-4 -12 -10 -20q-4 -8 -9 -14t-7 -6l-21 16q-22 16 -54 39.5t-69.5 52.5t-69.5 53.5t-54.5 41t-22.5 18.5z" />
<glyph unicode="&#xe1;" horiz-adv-x="774" d="M86 279q0 109 28.5 174t76 100t106.5 46t121 11q49 0 97 -5t85 -15v194q0 61 -14.5 99.5t-40 60t-61 28.5t-76.5 7q-111 0 -193 -17.5t-119 -35.5q-10 19 -10 37q0 25 12 32q35 16 125 32.5t201 16.5q117 0 179.5 -54t62.5 -193v-131q0 -176 -3.5 -332t-7.5 -279 q-14 -8 -36.5 -21.5t-56.5 -25.5t-78 -20t-101 -8q-55 -2 -108.5 6t-95.5 38.5t-67.5 90t-25.5 164.5zM156 281q0 -86 20.5 -134.5t54 -72t76.5 -27.5t90 -4q66 0 118 18.5t73 36.5q6 78 9 198.5t3 235.5q-37 10 -83 15.5t-81 5.5q-53 0 -104 -7t-90 -35t-62.5 -82 t-23.5 -148zM319 1241q49 47 98 90t90 77t68 54l27 21q8 0 14 -8.5t10 -19.5t7 -20.5t3 -11.5q-2 -2 -27.5 -23.5t-66.5 -53t-92 -70.5t-104 -76q-4 0 -8.5 6t-8.5 15q-6 8 -10 20z" />
<glyph unicode="&#xe2;" horiz-adv-x="774" d="M86 279q0 109 28.5 174t76 100t106.5 46t121 11q49 0 97 -5t85 -15v194q0 61 -14.5 99.5t-40 60t-61 28.5t-76.5 7q-111 0 -193 -17.5t-119 -35.5q-10 19 -10 37q0 25 12 32q35 16 125 32.5t201 16.5q117 0 179.5 -54t62.5 -193v-131q0 -176 -3.5 -332t-7.5 -279 q-14 -8 -36.5 -21.5t-56.5 -25.5t-78 -20t-101 -8q-55 -2 -108.5 6t-95.5 38.5t-67.5 90t-25.5 164.5zM150 1235l225 217q8 4 21 4q16 0 30 -16l99 -99q37 -37 68.5 -69.5t31.5 -34.5q0 -4 -17.5 -19.5t-39.5 -15.5q-49 49 -86 90q-33 35 -59.5 64.5t-28.5 34.5 q-51 -53 -92 -95q-35 -35 -66 -63.5t-37 -28.5q-25 0 -36 13.5t-13 17.5zM156 281q0 -86 20.5 -134.5t54 -72t76.5 -27.5t90 -4q66 0 118 18.5t73 36.5q6 78 9 198.5t3 235.5q-37 10 -83 15.5t-81 5.5q-53 0 -104 -7t-90 -35t-62.5 -82t-23.5 -148z" />
<glyph unicode="&#xe3;" horiz-adv-x="774" d="M86 279q0 109 28.5 174t76 100t106.5 46t121 11q49 0 97 -5t85 -15v194q0 61 -14.5 99.5t-40 60t-61 28.5t-76.5 7q-111 0 -193 -17.5t-119 -35.5q-10 19 -10 37q0 25 12 32q35 16 125 32.5t201 16.5q117 0 179.5 -54t62.5 -193v-131q0 -176 -3.5 -332t-7.5 -279 q-14 -8 -36.5 -21.5t-56.5 -25.5t-78 -20t-101 -8q-55 -2 -108.5 6t-95.5 38.5t-67.5 90t-25.5 164.5zM104 1278q47 80 92 103.5t98 23.5q37 0 59.5 -17.5t41 -38t39 -38t55.5 -17.5q43 0 68.5 16.5t42 35t24.5 35t17 16.5q8 0 14 -6.5t10 -14.5q6 -8 10 -18 q-10 -20 -24.5 -43t-37 -42.5t-54 -32.5t-74.5 -13q-47 0 -74.5 18.5t-47 41t-38 41t-45.5 18.5q-31 0 -53.5 -16.5t-38.5 -36t-26.5 -36t-16.5 -16.5q-14 0 -29 19q-8 8 -12 18zM156 281q0 -86 20.5 -134.5t54 -72t76.5 -27.5t90 -4q66 0 118 18.5t73 36.5q6 78 9 198.5 t3 235.5q-37 10 -83 15.5t-81 5.5q-53 0 -104 -7t-90 -35t-62.5 -82t-23.5 -148z" />
<glyph unicode="&#xe4;" horiz-adv-x="774" d="M86 279q0 109 28.5 174t76 100t106.5 46t121 11q49 0 97 -5t85 -15v194q0 61 -14.5 99.5t-40 60t-61 28.5t-76.5 7q-111 0 -193 -17.5t-119 -35.5q-10 19 -10 37q0 25 12 32q35 16 125 32.5t201 16.5q117 0 179.5 -54t62.5 -193v-131q0 -176 -3.5 -332t-7.5 -279 q-14 -8 -36.5 -21.5t-56.5 -25.5t-78 -20t-101 -8q-55 -2 -108.5 6t-95.5 38.5t-67.5 90t-25.5 164.5zM156 281q0 -86 20.5 -134.5t54 -72t76.5 -27.5t90 -4q66 0 118 18.5t73 36.5q6 78 9 198.5t3 235.5q-37 10 -83 15.5t-81 5.5q-53 0 -104 -7t-90 -35t-62.5 -82 t-23.5 -148zM186 1348q0 27 16.5 47t44.5 20q31 0 49.5 -19.5t18.5 -47.5q0 -31 -19.5 -50.5t-48.5 -19.5q-61 0 -61 70zM473 1348q0 27 16 47t45 20q31 0 48.5 -19.5t17.5 -47.5q0 -31 -18.5 -50.5t-47.5 -19.5q-61 0 -61 70z" />
<glyph unicode="&#xe5;" horiz-adv-x="774" d="M86 279q0 109 28.5 174t76 100t106.5 46t121 11q49 0 97 -5t85 -15v194q0 61 -14.5 99.5t-40 60t-61 28.5t-76.5 7q-111 0 -193 -17.5t-119 -35.5q-10 19 -10 37q0 25 12 32q35 16 125 32.5t201 16.5q117 0 179.5 -54t62.5 -193v-131q0 -176 -3.5 -332t-7.5 -279 q-14 -8 -36.5 -21.5t-56.5 -25.5t-78 -20t-101 -8q-55 -2 -108.5 6t-95.5 38.5t-67.5 90t-25.5 164.5zM156 281q0 -86 20.5 -134.5t54 -72t76.5 -27.5t90 -4q66 0 118 18.5t73 36.5q6 78 9 198.5t3 235.5q-37 10 -83 15.5t-81 5.5q-53 0 -104 -7t-90 -35t-62.5 -82 t-23.5 -148zM219 1368q0 92 49 134t131 42q84 0 124 -39t40 -137q0 -86 -46 -130t-132 -44q-76 0 -121 38t-45 136zM278 1364q0 -53 28 -82t81 -29q55 0 86 29t31 88q0 66 -27 90.5t-76 24.5q-59 0 -91 -25.5t-32 -95.5z" />
<glyph unicode="&#xe6;" horiz-adv-x="1337" d="M86 281q0 109 28.5 174t76 101t106.5 47t121 11q49 0 97 -5t85 -15v192q0 61 -15.5 99.5t-42 60t-64.5 28.5t-83 7q-96 0 -170.5 -17.5t-120.5 -43.5q-10 18 -10 38q0 10 6 19.5t13 13.5q33 18 108.5 35.5t198.5 17.5q111 0 170 -45t69 -161q27 70 63 110.5t77 62 t86 27.5t88 6q137 0 196.5 -83.5t59.5 -227.5q0 -61 -3 -125.5t-14 -111.5q-45 -8 -91 -11.5t-93 -3.5q-119 0 -218 14.5t-138 22.5v-69q0 -139 21.5 -218t58 -120t87 -51.5t109.5 -10.5q76 0 144.5 19.5t115.5 54.5q6 -14 9.5 -32.5t3.5 -31.5q0 -8 -22.5 -21t-60.5 -25.5 t-87.5 -20.5t-102.5 -8q-96 0 -169.5 24.5t-116.5 114.5v-78q-27 -16 -95.5 -38.5t-183.5 -22.5q-55 -2 -108.5 5t-95.5 36.5t-67.5 90t-25.5 165.5zM156 274q0 -82 20.5 -128t54 -69.5t76.5 -28.5t90 -5q63 0 122 15.5t81 35.5v443q-37 10 -83 15t-81 5q-53 0 -104 -7 t-90 -36t-62.5 -85t-23.5 -155zM676 578q20 -4 58 -10.5t84 -12.5t98.5 -11t103.5 -5q72 0 133 12q4 43 6 83t2 75q-2 133 -39.5 202.5t-150.5 69.5q-43 0 -90 -10t-89 -50t-74 -121t-42 -222z" />
<glyph unicode="&#xe7;" horiz-adv-x="708" d="M96 489q0 184 35 294t89 168.5t120 75.5t129 17q33 0 63.5 -6t55 -16t39 -23.5t14.5 -27.5q0 -8 -3 -21.5t-11 -23.5q-25 20 -68 37.5t-102 17.5q-47 0 -99.5 -15.5t-95.5 -66.5t-70.5 -150.5t-27.5 -267.5q0 -139 19.5 -225t53 -133t81 -63.5t102.5 -16.5q76 0 129 23.5 t82 52.5q12 -23 12 -45q0 -27 -58.5 -58.5t-154.5 -35.5l-20 -105q2 0 8 2q4 0 11 1t17 1q35 0 67 -24.5t32 -83.5q0 -43 -12.5 -71t-32 -44t-43 -22.5t-45.5 -6.5q-45 0 -72 6q-16 4 -31 9q2 12 4 22q4 23 13 31q10 10 33.5 -1t52.5 -11q31 0 53 15t22 60q0 47 -22.5 60.5 t-50.5 13.5q-14 0 -26.5 -2t-22.5 -4q-12 -4 -25 -6l33 162q-59 2 -109.5 23.5t-87.5 76.5t-58.5 152.5t-21.5 254.5z" />
<glyph unicode="&#xe8;" horiz-adv-x="790" d="M92 453q0 203 35 320.5t88 178t118 76.5t126 16q70 0 118 -23.5t78.5 -65.5t45 -101t14.5 -131q0 -61 -3 -120.5t-12 -106.5q-63 -12 -130.5 -19.5t-131 -11.5t-120 -5t-95.5 -1h-63v-10q0 -135 21.5 -216t58 -122t88 -53.5t110.5 -12.5q74 0 142.5 19.5t115.5 56.5 q6 -16 8.5 -28.5t2.5 -22.5q0 -14 -22.5 -29.5t-59.5 -29t-86.5 -22.5t-104.5 -9q-74 0 -136 15t-108.5 64.5t-72 142.5t-25.5 251zM160 520h83t124.5 2t141.5 9.5t132 19.5q4 43 6 78t2 71q-2 66 -11 118t-30.5 88t-57.5 55.5t-91 19.5q-45 0 -95.5 -11.5t-93.5 -57.5 t-73.5 -138t-36.5 -254zM215 1438q0 2 3 12t7 20.5t10.5 18.5t14.5 8l21 -17q20 -18 51.5 -43.5t67.5 -55t66.5 -56.5t52 -46t23.5 -22q-4 -12 -10 -20q-4 -8 -9 -14t-7 -6l-21 16q-22 16 -54 39.5t-69.5 52.5t-69.5 53.5t-54.5 41t-22.5 18.5z" />
<glyph unicode="&#xe9;" horiz-adv-x="790" d="M92 453q0 203 35 320.5t88 178t118 76.5t126 16q70 0 118 -23.5t78.5 -65.5t45 -101t14.5 -131q0 -61 -3 -120.5t-12 -106.5q-63 -12 -130.5 -19.5t-131 -11.5t-120 -5t-95.5 -1h-63v-10q0 -135 21.5 -216t58 -122t88 -53.5t110.5 -12.5q74 0 142.5 19.5t115.5 56.5 q6 -16 8.5 -28.5t2.5 -22.5q0 -14 -22.5 -29.5t-59.5 -29t-86.5 -22.5t-104.5 -9q-74 0 -136 15t-108.5 64.5t-72 142.5t-25.5 251zM160 520h83t124.5 2t141.5 9.5t132 19.5q4 43 6 78t2 71q-2 66 -11 118t-30.5 88t-57.5 55.5t-91 19.5q-45 0 -95.5 -11.5t-93.5 -57.5 t-73.5 -138t-36.5 -254zM375 1241q49 47 98 90t90 77t68 54l27 21q8 0 14 -8.5t10 -19.5t7 -20.5t3 -11.5q-2 -2 -27.5 -23.5t-66.5 -53t-92 -70.5t-104 -76q-4 0 -8.5 6t-8.5 15q-6 8 -10 20z" />
<glyph unicode="&#xea;" horiz-adv-x="790" d="M92 453q0 203 35 320.5t88 178t118 76.5t126 16q70 0 118 -23.5t78.5 -65.5t45 -101t14.5 -131q0 -61 -3 -120.5t-12 -106.5q-63 -12 -130.5 -19.5t-131 -11.5t-120 -5t-95.5 -1h-63v-10q0 -135 21.5 -216t58 -122t88 -53.5t110.5 -12.5q74 0 142.5 19.5t115.5 56.5 q6 -16 8.5 -28.5t2.5 -22.5q0 -14 -22.5 -29.5t-59.5 -29t-86.5 -22.5t-104.5 -9q-74 0 -136 15t-108.5 64.5t-72 142.5t-25.5 251zM160 520h83t124.5 2t141.5 9.5t132 19.5q4 43 6 78t2 71q-2 66 -11 118t-30.5 88t-57.5 55.5t-91 19.5q-45 0 -95.5 -11.5t-93.5 -57.5 t-73.5 -138t-36.5 -254zM203 1235l225 217q8 4 21 4q16 0 30 -16l99 -99q37 -37 68.5 -69.5t31.5 -34.5q0 -4 -17.5 -19.5t-39.5 -15.5q-49 49 -86 90q-33 35 -59.5 64.5t-28.5 34.5q-51 -53 -92 -95q-35 -35 -66 -63.5t-37 -28.5q-25 0 -36 13.5t-13 17.5z" />
<glyph unicode="&#xeb;" horiz-adv-x="790" d="M92 453q0 203 35 320.5t88 178t118 76.5t126 16q70 0 118 -23.5t78.5 -65.5t45 -101t14.5 -131q0 -61 -3 -120.5t-12 -106.5q-63 -12 -130.5 -19.5t-131 -11.5t-120 -5t-95.5 -1h-63v-10q0 -135 21.5 -216t58 -122t88 -53.5t110.5 -12.5q74 0 142.5 19.5t115.5 56.5 q6 -16 8.5 -28.5t2.5 -22.5q0 -14 -22.5 -29.5t-59.5 -29t-86.5 -22.5t-104.5 -9q-74 0 -136 15t-108.5 64.5t-72 142.5t-25.5 251zM160 520h83t124.5 2t141.5 9.5t132 19.5q4 43 6 78t2 71q-2 66 -11 118t-30.5 88t-57.5 55.5t-91 19.5q-45 0 -95.5 -11.5t-93.5 -57.5 t-73.5 -138t-36.5 -254zM240 1348q0 27 16.5 47t44.5 20q31 0 49.5 -19.5t18.5 -47.5q0 -31 -19.5 -50.5t-48.5 -19.5q-61 0 -61 70zM527 1348q0 27 16 47t45 20q31 0 48.5 -19.5t17.5 -47.5q0 -31 -18.5 -50.5t-47.5 -19.5q-61 0 -61 70z" />
<glyph unicode="&#xec;" horiz-adv-x="342" d="M-59 1438q0 2 3 12t7 20.5t10.5 18.5t14.5 8l21 -17q20 -18 51.5 -43.5t67.5 -55t66.5 -56.5t52 -46t23.5 -22q-4 -12 -10 -20q-4 -8 -9 -14t-7 -6l-21 16q-22 16 -54 39.5t-69.5 52.5t-69.5 53.5t-54.5 41t-22.5 18.5zM135 0v987q0 29 16.5 33t55.5 4v-1001 q0 -16 -10.5 -19.5t-61.5 -3.5z" />
<glyph unicode="&#xed;" horiz-adv-x="342" d="M98 1241q49 47 98 90t90 77t68 54l27 21q8 0 14 -8.5t10 -19.5t7 -20.5t3 -11.5q-2 -2 -27.5 -23.5t-66.5 -53t-92 -70.5t-104 -76q-4 0 -8.5 6t-8.5 15q-6 8 -10 20zM135 0v987q0 29 16.5 33t55.5 4v-1001q0 -16 -10.5 -19.5t-61.5 -3.5z" />
<glyph unicode="&#xee;" horiz-adv-x="342" d="M-72 1235l225 217q8 4 21 4q16 0 30 -16l99 -99q37 -37 68.5 -69.5t31.5 -34.5q0 -4 -17.5 -19.5t-39.5 -15.5q-49 49 -86 90q-33 35 -59.5 64.5t-28.5 34.5q-51 -53 -92 -95q-35 -35 -66 -63.5t-37 -28.5q-25 0 -36 13.5t-13 17.5zM135 0v987q0 29 16.5 33t55.5 4v-1001 q0 -16 -10.5 -19.5t-61.5 -3.5z" />
<glyph unicode="&#xef;" horiz-adv-x="342" d="M-33 1348q0 27 16.5 47t44.5 20q31 0 49.5 -19.5t18.5 -47.5q0 -31 -19.5 -50.5t-48.5 -19.5q-61 0 -61 70zM135 0v987q0 29 16.5 33t55.5 4v-1001q0 -16 -10.5 -19.5t-61.5 -3.5zM254 1348q0 27 16 47t45 20q31 0 48.5 -19.5t17.5 -47.5q0 -31 -18.5 -50.5t-47.5 -19.5 q-61 0 -61 70z" />
<glyph unicode="&#xf0;" horiz-adv-x="913" d="M96 524q0 258 94.5 387t274.5 129q82 0 148.5 -28.5t113.5 -87.5q-27 111 -75 208t-124 183l-194 -78q-14 37 -16.5 49t14.5 21l147 59q-33 33 -68.5 62.5t-76.5 58.5q10 35 43 35q18 0 31 -13q74 -53 137 -116l168 67q16 -39 18 -51t-14 -18l-123 -50q123 -141 179 -324 t56 -425q0 -119 -13 -229.5t-51 -195.5t-109.5 -136t-188.5 -51q-182 0 -276.5 129t-94.5 415zM164 520q0 -127 20.5 -218t60.5 -148.5t95 -84t127 -26.5q98 0 156.5 49t89 129t40 182.5t9.5 206.5q0 100 -12 193q-100 174 -277 174q-147 0 -228 -113.5t-81 -343.5z" />
<glyph unicode="&#xf1;" horiz-adv-x="851" d="M131 0v971q78 35 162 54t174 19q84 0 138 -18t85 -55t42 -91.5t11 -123.5v-733q0 -16 -9 -19.5t-60 -3.5v741q0 61 -8.5 106.5t-31 75t-63.5 44t-104 14.5q-29 0 -62.5 -3t-70.5 -10t-73 -18.5t-64 -25.5v-901q0 -16 -9.5 -19.5t-56.5 -3.5zM172 1278q47 80 92 103.5 t98 23.5q37 0 59.5 -17.5t41 -38t39 -38t55.5 -17.5q43 0 68.5 16.5t42 35t24.5 35t17 16.5q8 0 14 -6.5t10 -14.5q6 -8 10 -18q-10 -20 -24.5 -43t-37 -42.5t-54 -32.5t-74.5 -13q-47 0 -74.5 18.5t-47 41t-38 41t-45.5 18.5q-31 0 -53.5 -16.5t-38.5 -36t-26.5 -36 t-16.5 -16.5q-14 0 -29 19q-8 8 -12 18z" />
<glyph unicode="&#xf2;" horiz-adv-x="811" d="M76 508q0 287 92 411.5t250 124.5q78 0 137 -24.5t99 -85t60.5 -163.5t20.5 -261q0 -270 -88 -400t-252 -130q-72 0 -131 17t-101 72.5t-64.5 160t-22.5 278.5zM145 496q0 -137 16.5 -225.5t49.5 -138.5t80 -69.5t106 -19.5q123 0 196 113.5t73 359.5q0 141 -17.5 231.5 t-49.5 142.5t-79 71.5t-104 19.5q-61 0 -111.5 -24.5t-85.5 -82t-54.5 -149.5t-19.5 -229zM186 1438q0 2 3 12t7 20.5t10.5 18.5t14.5 8l21 -17q20 -18 51.5 -43.5t67.5 -55t66.5 -56.5t52 -46t23.5 -22q-4 -12 -10 -20q-4 -8 -9 -14t-7 -6l-21 16q-22 16 -54 39.5 t-69.5 52.5t-69.5 53.5t-54.5 41t-22.5 18.5z" />
<glyph unicode="&#xf3;" horiz-adv-x="811" d="M76 508q0 287 92 411.5t250 124.5q78 0 137 -24.5t99 -85t60.5 -163.5t20.5 -261q0 -270 -88 -400t-252 -130q-72 0 -131 17t-101 72.5t-64.5 160t-22.5 278.5zM145 496q0 -137 16.5 -225.5t49.5 -138.5t80 -69.5t106 -19.5q123 0 196 113.5t73 359.5q0 141 -17.5 231.5 t-49.5 142.5t-79 71.5t-104 19.5q-61 0 -111.5 -24.5t-85.5 -82t-54.5 -149.5t-19.5 -229zM346 1241q49 47 98 90t90 77t68 54l27 21q8 0 14 -8.5t10 -19.5t7 -20.5t3 -11.5q-2 -2 -27.5 -23.5t-66.5 -53t-92 -70.5t-104 -76q-4 0 -8.5 6t-8.5 15q-6 8 -10 20z" />
<glyph unicode="&#xf4;" horiz-adv-x="811" d="M76 508q0 287 92 411.5t250 124.5q78 0 137 -24.5t99 -85t60.5 -163.5t20.5 -261q0 -270 -88 -400t-252 -130q-72 0 -131 17t-101 72.5t-64.5 160t-22.5 278.5zM145 496q0 -137 16.5 -225.5t49.5 -138.5t80 -69.5t106 -19.5q123 0 196 113.5t73 359.5q0 141 -17.5 231.5 t-49.5 142.5t-79 71.5t-104 19.5q-61 0 -111.5 -24.5t-85.5 -82t-54.5 -149.5t-19.5 -229zM174 1235l225 217q8 4 21 4q16 0 30 -16l99 -99q37 -37 68.5 -69.5t31.5 -34.5q0 -4 -17.5 -19.5t-39.5 -15.5q-49 49 -86 90q-33 35 -59.5 64.5t-28.5 34.5q-51 -53 -92 -95 q-35 -35 -66 -63.5t-37 -28.5q-25 0 -36 13.5t-13 17.5z" />
<glyph unicode="&#xf5;" horiz-adv-x="811" d="M76 508q0 287 92 411.5t250 124.5q78 0 137 -24.5t99 -85t60.5 -163.5t20.5 -261q0 -270 -88 -400t-252 -130q-72 0 -131 17t-101 72.5t-64.5 160t-22.5 278.5zM131 1278q47 80 92 103.5t98 23.5q37 0 59.5 -17.5t41 -38t39 -38t55.5 -17.5q43 0 68.5 16.5t42 35t24.5 35 t17 16.5q8 0 14 -6.5t10 -14.5q6 -8 10 -18q-10 -20 -24.5 -43t-37 -42.5t-54 -32.5t-74.5 -13q-47 0 -74.5 18.5t-47 41t-38 41t-45.5 18.5q-31 0 -53.5 -16.5t-38.5 -36t-26.5 -36t-16.5 -16.5q-14 0 -29 19q-8 8 -12 18zM145 496q0 -137 16.5 -225.5t49.5 -138.5 t80 -69.5t106 -19.5q123 0 196 113.5t73 359.5q0 141 -17.5 231.5t-49.5 142.5t-79 71.5t-104 19.5q-61 0 -111.5 -24.5t-85.5 -82t-54.5 -149.5t-19.5 -229z" />
<glyph unicode="&#xf6;" horiz-adv-x="811" d="M76 508q0 287 92 411.5t250 124.5q78 0 137 -24.5t99 -85t60.5 -163.5t20.5 -261q0 -270 -88 -400t-252 -130q-72 0 -131 17t-101 72.5t-64.5 160t-22.5 278.5zM145 496q0 -137 16.5 -225.5t49.5 -138.5t80 -69.5t106 -19.5q123 0 196 113.5t73 359.5q0 141 -17.5 231.5 t-49.5 142.5t-79 71.5t-104 19.5q-61 0 -111.5 -24.5t-85.5 -82t-54.5 -149.5t-19.5 -229zM213 1348q0 27 16.5 47t44.5 20q31 0 49.5 -19.5t18.5 -47.5q0 -31 -19.5 -50.5t-48.5 -19.5q-61 0 -61 70zM500 1348q0 27 16 47t45 20q31 0 48.5 -19.5t17.5 -47.5 q0 -31 -18.5 -50.5t-47.5 -19.5q-61 0 -61 70z" />
<glyph unicode="&#xf7;" d="M98 543q0 41 3 54t20 13h694q0 -41 -3 -54t-19 -13h-695zM385 303q0 29 17.5 48.5t46.5 19.5q31 0 48 -19.5t17 -48.5q0 -31 -18.5 -50.5t-46.5 -19.5q-31 0 -47.5 19.5t-16.5 50.5zM385 840q0 29 17.5 48t46.5 19q31 0 48 -19.5t17 -47.5q0 -31 -18.5 -50.5t-46.5 -19.5 q-31 0 -47.5 19.5t-16.5 50.5z" />
<glyph unicode="&#xf8;" horiz-adv-x="888" d="M78 -6l11 20q11 19 26.5 44.5t32 51t24.5 40.5q-23 59 -34 147t-11 211q0 287 90 411.5t248 124.5q74 0 131 -22.5t98 -77.5l78 125q12 -2 23 -8q8 -4 15 -10.5t7 -14.5q0 -2 -10 -19.5t-24.5 -41t-30 -48t-25.5 -40.5q29 -61 43 -153.5t14 -223.5q0 -270 -86 -400 t-239 -130q-86 0 -150.5 21.5t-107.5 88.5q-10 -18 -24.5 -40.5t-27 -42t-16.5 -26.5l-12 -20q-4 0 -23.5 6t-19.5 27zM197 496q0 -190 32 -289l418 684q-31 51 -77 70.5t-103 19.5q-61 0 -111.5 -24.5t-85 -82t-54 -149.5t-19.5 -229zM252 147q33 -59 82 -81.5t115 -22.5 q123 0 194.5 113.5t71.5 359.5q0 111 -10.5 188.5t-30.5 131.5q-23 -37 -59.5 -97.5t-78.5 -130t-87.5 -143.5t-84 -137.5t-69.5 -111.5t-43 -69z" />
<glyph unicode="&#xf9;" horiz-adv-x="894" d="M141 369v632q0 8 1 13.5t7.5 7.5t19.5 2h40v-668q0 -90 10 -150.5t38 -96t76 -51t122 -15.5q41 0 107.5 11.5t123.5 43.5v903q0 16 11.5 19.5t56.5 3.5v-977q-76 -37 -159 -52t-155 -15q-90 0 -147 20t-91 66.5t-47.5 121t-13.5 181.5zM223 1438q0 2 3 12t7 20.5 t10.5 18.5t14.5 8l21 -17q20 -18 51.5 -43.5t67.5 -55t66.5 -56.5t52 -46t23.5 -22q-4 -12 -10 -20q-4 -8 -9 -14t-7 -6l-21 16q-22 16 -54 39.5t-69.5 52.5t-69.5 53.5t-54.5 41t-22.5 18.5z" />
<glyph unicode="&#xfa;" horiz-adv-x="894" d="M141 369v632q0 8 1 13.5t7.5 7.5t19.5 2h40v-668q0 -90 10 -150.5t38 -96t76 -51t122 -15.5q41 0 107.5 11.5t123.5 43.5v903q0 16 11.5 19.5t56.5 3.5v-977q-76 -37 -159 -52t-155 -15q-90 0 -147 20t-91 66.5t-47.5 121t-13.5 181.5zM383 1241q49 47 98 90t90 77t68 54 l27 21q8 0 14 -8.5t10 -19.5t7 -20.5t3 -11.5q-2 -2 -27.5 -23.5t-66.5 -53t-92 -70.5t-104 -76q-4 0 -8.5 6t-8.5 15q-6 8 -10 20z" />
<glyph unicode="&#xfb;" horiz-adv-x="894" d="M141 369v632q0 8 1 13.5t7.5 7.5t19.5 2h40v-668q0 -90 10 -150.5t38 -96t76 -51t122 -15.5q41 0 107.5 11.5t123.5 43.5v903q0 16 11.5 19.5t56.5 3.5v-977q-76 -37 -159 -52t-155 -15q-90 0 -147 20t-91 66.5t-47.5 121t-13.5 181.5zM213 1235l225 217q8 4 21 4 q16 0 30 -16l99 -99q37 -37 68.5 -69.5t31.5 -34.5q0 -4 -17.5 -19.5t-39.5 -15.5q-49 49 -86 90q-33 35 -59.5 64.5t-28.5 34.5q-51 -53 -92 -95q-35 -35 -66 -63.5t-37 -28.5q-25 0 -36 13.5t-13 17.5z" />
<glyph unicode="&#xfc;" horiz-adv-x="894" d="M141 369v632q0 8 1 13.5t7.5 7.5t19.5 2h40v-668q0 -90 10 -150.5t38 -96t76 -51t122 -15.5q41 0 107.5 11.5t123.5 43.5v903q0 16 11.5 19.5t56.5 3.5v-977q-76 -37 -159 -52t-155 -15q-90 0 -147 20t-91 66.5t-47.5 121t-13.5 181.5zM250 1348q0 27 16.5 47t44.5 20 q31 0 49.5 -19.5t18.5 -47.5q0 -31 -19.5 -50.5t-48.5 -19.5q-61 0 -61 70zM537 1348q0 27 16 47t45 20q31 0 48.5 -19.5t17.5 -47.5q0 -31 -18.5 -50.5t-47.5 -19.5q-61 0 -61 70z" />
<glyph unicode="&#xfd;" horiz-adv-x="780" d="M12 -350q0 10 5.5 23.5t13.5 19.5q25 -12 59.5 -18.5t56.5 -6.5q66 0 122.5 65.5t97.5 233.5l-281 1032q-6 18 2 21.5t59 3.5l191 -696q14 -53 24.5 -103.5t20.5 -91.5q8 -47 18 -90q8 43 17 90q8 41 18 92t25 105l174 669q4 18 13 21.5t63 3.5l-287 -1094 q-49 -182 -117.5 -253.5t-159.5 -71.5q-59 0 -97 11t-38 34zM334 1241q49 47 98 90t90 77t68 54l27 21q8 0 14 -8.5t10 -19.5t7 -20.5t3 -11.5q-2 -2 -27.5 -23.5t-66.5 -53t-92 -70.5t-104 -76q-4 0 -8.5 6t-8.5 15q-6 8 -10 20z" />
<glyph unicode="&#xfe;" horiz-adv-x="845" d="M135 -387v1855q0 29 14.5 33t53.5 4v-506q51 23 105 33t120 10q80 0 143.5 -21.5t107.5 -73.5t66.5 -138t22.5 -217q0 -135 -19.5 -233.5t-51 -166t-71.5 -109.5t-82 -64.5t-82 -29.5t-71 -7q-74 0 -120 22.5t-68 50.5v-461q-10 -4 -18.5 -4h-18.5q-16 0 -23.5 3.5 t-7.5 19.5zM203 137q33 -49 79 -70.5t99 -21.5q37 0 91 18.5t104.5 74t86 160.5t35.5 282q0 119 -19.5 196.5t-54 122.5t-83.5 62.5t-111 17.5q-70 0 -125 -16.5t-102 -47.5v-778z" />
<glyph unicode="&#xff;" horiz-adv-x="780" d="M12 -350q0 10 5.5 23.5t13.5 19.5q25 -12 59.5 -18.5t56.5 -6.5q66 0 122.5 65.5t97.5 233.5l-281 1032q-6 18 2 21.5t59 3.5l191 -696q14 -53 24.5 -103.5t20.5 -91.5q8 -47 18 -90q8 43 17 90q8 41 18 92t25 105l174 669q4 18 13 21.5t63 3.5l-287 -1094 q-49 -182 -117.5 -253.5t-159.5 -71.5q-59 0 -97 11t-38 34zM201 1348q0 27 16.5 47t44.5 20q31 0 49.5 -19.5t18.5 -47.5q0 -31 -19.5 -50.5t-48.5 -19.5q-61 0 -61 70zM488 1348q0 27 16 47t45 20q31 0 48.5 -19.5t17.5 -47.5q0 -31 -18.5 -50.5t-47.5 -19.5q-61 0 -61 70 z" />
<glyph unicode="&#x152;" horiz-adv-x="1347" d="M92 727q0 197 23.5 334t72 225t122 128t171.5 40q106 0 176 -45t111 -147v149q0 4 2 10q4 12 21 13h485q0 -41 -2 -53.5t-12 -12.5h-431v-551h404q0 -41 -2 -52t-16 -11h-386v-688h449q0 -45 -2 -55.5t-18 -10.5h-492v197q-43 -117 -116.5 -167t-188.5 -50 q-98 0 -168 36.5t-115 123.5t-66.5 230.5t-21.5 356.5zM162 700q0 -180 17.5 -304t54 -201.5t93 -112.5t136.5 -35q84 0 141.5 36t92 118t50 212t15.5 320q0 184 -14.5 309t-47 202t-86 111t-131.5 34q-80 0 -140 -37t-100 -118t-60.5 -212.5t-20.5 -321.5z" />
<glyph unicode="&#x153;" horiz-adv-x="1392" d="M94 508q0 287 90 411.5t248 124.5q111 0 184.5 -51t108.5 -186q25 84 62.5 131t81.5 70.5t91.5 29.5t92.5 6q139 0 197.5 -83.5t58.5 -227.5q0 -61 -3 -125.5t-12 -111.5q-63 -12 -130.5 -19.5t-131 -11.5t-120 -5t-95.5 -1h-63v-10q0 -139 21.5 -219t58 -121t87 -52.5 t109.5 -11.5q76 0 144.5 19.5t115.5 56.5q6 -16 8 -34.5t2 -31.5q0 -8 -22.5 -21.5t-59 -25.5t-86 -20t-104.5 -8t-104.5 7t-91 30.5t-72.5 67.5t-49 116q-41 -113 -113 -167t-172 -54q-78 0 -139.5 17t-104.5 72.5t-65.5 160t-22.5 278.5zM164 496q0 -137 16.5 -225.5 t49 -138.5t79.5 -69.5t107 -19.5q121 0 192.5 107.5t75.5 341.5v24q0 141 -17.5 231.5t-49 142.5t-78.5 71.5t-105 19.5q-61 0 -111.5 -24.5t-85 -82t-54 -149.5t-19.5 -229zM754 520h83t124.5 2t141.5 9.5t132 19.5q4 43 6 83t2 75q-2 66 -11 117t-30.5 85.5t-58.5 52 t-92 17.5q-45 0 -94.5 -8t-92.5 -53.5t-73.5 -138.5t-36.5 -261z" />
<glyph unicode="&#x178;" horiz-adv-x="733" d="M12 1421q-4 10 6.5 11.5t67.5 1.5l115 -301q27 -68 56.5 -151t55 -155.5t42 -123t16.5 -52.5q0 2 17.5 52.5t43 122t55 154.5t54.5 153l106 286q4 10 13.5 12.5t62.5 2.5l-320 -850v-561q0 -16 -8 -19.5t-59 -3.5v588zM168 1758q0 27 16.5 47t44.5 20q31 0 49.5 -19.5 t18.5 -47.5q0 -31 -19.5 -50.5t-48.5 -19.5q-61 0 -61 70zM455 1758q0 27 16 47t45 20q31 0 48.5 -19.5t17.5 -47.5q0 -31 -18.5 -50.5t-47.5 -19.5q-61 0 -61 70z" />
<glyph unicode="&#x2c6;" horiz-adv-x="475" d="M0 1235l225 217q8 4 21 4q16 0 30 -16l99 -99q37 -37 68.5 -69.5t31.5 -34.5q0 -4 -17.5 -19.5t-39.5 -15.5q-49 49 -86 90q-33 35 -59.5 64.5t-28.5 34.5q-51 -53 -92 -95q-35 -35 -66 -63.5t-37 -28.5q-25 0 -36 13.5t-13 17.5z" />
<glyph unicode="&#x2dc;" horiz-adv-x="571" d="M0 1278q47 80 92 103.5t98 23.5q37 0 59.5 -17.5t41 -38t39 -38t55.5 -17.5q43 0 68.5 16.5t42 35t24.5 35t17 16.5q8 0 14 -6.5t10 -14.5q6 -8 10 -18q-10 -20 -24.5 -43t-37 -42.5t-54 -32.5t-74.5 -13q-47 0 -74.5 18.5t-47 41t-38 41t-45.5 18.5q-31 0 -53.5 -16.5 t-38.5 -36t-26.5 -36t-16.5 -16.5q-14 0 -29 19q-8 8 -12 18z" />
<glyph unicode="&#x2000;" horiz-adv-x="977" />
<glyph unicode="&#x2001;" horiz-adv-x="1954" />
<glyph unicode="&#x2002;" horiz-adv-x="977" />
<glyph unicode="&#x2003;" horiz-adv-x="1954" />
<glyph unicode="&#x2004;" horiz-adv-x="651" />
<glyph unicode="&#x2005;" horiz-adv-x="488" />
<glyph unicode="&#x2006;" horiz-adv-x="325" />
<glyph unicode="&#x2007;" horiz-adv-x="325" />
<glyph unicode="&#x2008;" horiz-adv-x="244" />
<glyph unicode="&#x2009;" horiz-adv-x="390" />
<glyph unicode="&#x200a;" horiz-adv-x="108" />
<glyph unicode="&#x2010;" horiz-adv-x="614" d="M98 543q0 41 3 54t20 13h395q0 -41 -3 -54t-19 -13h-396z" />
<glyph unicode="&#x2011;" horiz-adv-x="614" d="M98 543q0 41 3 54t20 13h395q0 -41 -3 -54t-19 -13h-396z" />
<glyph unicode="&#x2012;" horiz-adv-x="614" d="M98 543q0 41 3 54t20 13h395q0 -41 -3 -54t-19 -13h-396z" />
<glyph unicode="&#x2013;" horiz-adv-x="913" d="M98 543q0 41 3 54t20 13h694q0 -41 -3 -54t-19 -13h-695z" />
<glyph unicode="&#x2014;" horiz-adv-x="1433" d="M12 543q0 41 3 54t20 13h1386q0 -41 -3 -54t-19 -13h-1387z" />
<glyph unicode="&#x2018;" horiz-adv-x="299" d="M84 1270q0 43 11 102.5t26.5 113.5t33 91t27.5 37t20.5 -9.5t12.5 -19.5q-25 -57 -35 -134t-8 -128q14 -8 23.5 -25.5t9.5 -40.5q0 -29 -16.5 -46t-45.5 -17t-44 14.5t-15 61.5z" />
<glyph unicode="&#x2019;" horiz-adv-x="299" d="M84 1204q12 29 20.5 64t13.5 70.5t7 69.5t2 58q-14 10 -23.5 26.5t-9.5 39.5q0 29 16.5 47t45.5 18t45 -15t16 -62q0 -43 -11 -101.5t-27.5 -113t-34 -91t-27.5 -36.5t-20.5 8t-12.5 18z" />
<glyph unicode="&#x201a;" horiz-adv-x="299" d="M84 -199q12 29 20.5 64t13.5 70.5t7 69.5t2 58q-14 10 -23.5 26.5t-9.5 39.5q0 29 16.5 47.5t45.5 18.5t45 -15.5t16 -62.5q0 -43 -11 -102.5t-27.5 -113t-34 -91t-27.5 -37.5t-20.5 9t-12.5 19z" />
<glyph unicode="&#x201c;" horiz-adv-x="563" d="M84 1270q0 43 11 102.5t26.5 113.5t33 91t27.5 37t20.5 -9.5t12.5 -19.5q-25 -57 -35 -134t-8 -128q14 -8 23.5 -25.5t9.5 -40.5q0 -29 -16.5 -46t-45.5 -17t-44 14.5t-15 61.5zM348 1270q0 43 11.5 102.5t26.5 113.5t32.5 91t27.5 37t20.5 -9.5t12.5 -19.5 q-25 -57 -35 -134t-8 -128q14 -8 23.5 -25.5t9.5 -40.5q0 -29 -16.5 -46t-44.5 -17q-29 0 -44.5 14.5t-15.5 61.5z" />
<glyph unicode="&#x201d;" horiz-adv-x="563" d="M84 1204q12 29 20.5 64t13.5 70.5t7 69.5t2 58q-14 10 -23.5 26.5t-9.5 39.5q0 29 16.5 47t45.5 18t45 -15t16 -62q0 -43 -11 -101.5t-27.5 -113t-34 -91t-27.5 -36.5t-20.5 8t-12.5 18zM348 1204q12 29 20.5 64t13.5 70.5t7 69.5t2 58q-14 10 -23.5 26.5t-9.5 39.5 q0 29 16.5 47t45.5 18t44 -15t15 -62q0 -43 -11 -101.5t-26.5 -113t-33 -91t-27.5 -36.5t-20.5 8t-12.5 18z" />
<glyph unicode="&#x201e;" horiz-adv-x="563" d="M84 -199q12 29 20.5 64t13.5 70.5t7 69.5t2 58q-14 10 -23.5 26.5t-9.5 39.5q0 29 16.5 47.5t45.5 18.5t45 -15.5t16 -62.5q0 -43 -11 -102.5t-27.5 -113t-34 -91t-27.5 -37.5t-20.5 9t-12.5 19zM348 -199q12 29 20.5 64t13.5 70.5t7 69.5t2 58q-14 10 -23.5 26.5 t-9.5 39.5q0 29 16.5 47.5t45.5 18.5t44 -15.5t15 -62.5q0 -43 -11 -102.5t-26.5 -113t-33 -91t-27.5 -37.5t-20.5 9t-12.5 19z" />
<glyph unicode="&#x2022;" horiz-adv-x="419" d="M123 575q0 45 26.5 78t73.5 33q49 0 78 -32.5t29 -78.5q0 -49 -30 -81.5t-77 -32.5q-49 0 -74.5 31.5t-25.5 82.5z" />
<glyph unicode="&#x2026;" horiz-adv-x="940" d="M105 63q0 29 17.5 49.5t45.5 20.5q33 0 51.5 -20.5t18.5 -49.5q0 -31 -19.5 -51t-50.5 -20t-47 19t-16 52zM404 63q0 29 17.5 49.5t45.5 20.5q33 0 51.5 -20.5t18.5 -49.5q0 -31 -19.5 -51t-50.5 -20t-47 19t-16 52zM703 63q0 29 17.5 49.5t45.5 20.5q33 0 51.5 -20.5 t18.5 -49.5q0 -31 -19.5 -51t-50.5 -20t-47 19t-16 52z" />
<glyph unicode="&#x202f;" horiz-adv-x="390" />
<glyph unicode="&#x2039;" horiz-adv-x="542" d="M76 512q0 6 13 32.5t34.5 63.5t49.5 82t56 92q68 109 156 242q10 0 17.5 -6t13.5 -12q8 -8 12 -17q0 -6 -12.5 -30.5t-33 -59.5t-46 -77t-51.5 -85q-63 -100 -144 -225q82 -125 148 -223q27 -43 53.5 -84t48 -75t33.5 -57.5t12 -27.5q-4 -14 -10 -22q-12 -23 -27 -23 q-92 131 -161 240q-31 45 -59.5 91t-52.5 83t-37 63.5t-13 34.5z" />
<glyph unicode="&#x203a;" horiz-adv-x="542" d="M104 45q0 4 12.5 26.5t34 56.5t47 75t54.5 84l147 225q-80 125 -143 225q-27 43 -52.5 85t-45 77t-31.5 59.5t-12 30.5q0 10 6 16.5t14 10.5q8 6 23 8q86 -133 153 -242q29 -47 57.5 -92t50 -82t35 -63.5t13.5 -32.5q0 -8 -14.5 -34.5t-37 -63.5t-51 -83t-59.5 -91 q-70 -109 -160 -240q-12 2 -20 8q-8 4 -14.5 13.5t-6.5 23.5z" />
<glyph unicode="&#x205f;" horiz-adv-x="488" />
<glyph unicode="&#x20ac;" d="M53 451q0 35 6.5 47t28.5 12h154v37q0 55 2 104t6 94h-197q0 33 6.5 46.5t28.5 13.5h168q20 143 60 229t91.5 131t110 59.5t113.5 14.5q45 0 81 -10t60.5 -22.5t36.5 -25t12 -18.5q0 -14 -5 -28.5t-13 -18.5q-4 4 -19.5 13.5t-37 19.5t-48 17.5t-57.5 7.5 q-45 0 -93 -10.5t-90 -48.5t-76 -111.5t-52 -198.5h366q0 -35 -5 -47.5t-27 -12.5h-342q-4 -45 -6.5 -95t-2.5 -109v-31h301q0 -35 -6 -47t-28 -12h-265q6 -139 35 -220t69 -122t88 -51.5t97 -10.5q66 0 125 27.5t88 62.5q4 -8 10.5 -22.5t6.5 -28.5q0 -12 -19.5 -29.5 t-52.5 -35t-76 -29.5t-90 -12q-61 0 -120.5 13t-109 62t-82 142.5t-40.5 253.5h-191z" />
<glyph unicode="&#x2122;" horiz-adv-x="1128" d="M78 1380v33q0 14 10 19q4 2 10 2h437v-33q0 -14 -11 -19q-6 -2 -10 -2h-172v-575q0 -14 -6 -16.5t-47 -2.5v594h-211zM582 786v627q0 4 2 10q4 10 18 11h29l114 -306q0 -4 9.5 -24.5t19.5 -46.5q12 -31 29 -68l24 66q10 25 16.5 45t8.5 24l111 289q0 2 4 11.5t16 9.5h35 v-627q0 -16 -7 -18.5t-48 -2.5v238q0 2 1 30.5t1 66.5t1 79t1 70q-10 -27 -20.5 -54.5t-19.5 -50l-15 -37.5l-7 -16l-76 -197q-6 -10 -12 -10h-43l-80 207q-2 2 -20.5 50t-38.5 100v-56.5t1 -78.5t1 -71.5v-33.5v-215q0 -16 -7 -18.5t-48 -2.5z" />
<glyph unicode="&#xe000;" horiz-adv-x="1024" d="M0 0v1024h1024v-1024h-1024z" />
<glyph unicode="&#xfb03;" horiz-adv-x="1277" d="M37 961q0 45 3 54t19 9h146v158q0 117 35.5 182.5t87 97t104.5 37.5t90 6q61 0 118.5 -20.5t98.5 -48.5q51 53 119 66.5t131 13.5q86 0 135.5 -15.5t49.5 -38.5q0 -10 -3.5 -20t-7.5 -21q-80 29 -176 29q-43 0 -89 -7t-84 -37t-62.5 -89.5t-24.5 -163.5v-129h199 q0 -45 -3 -54t-20 -9h-176v-938q0 -6 -2 -13q-4 -10 -20 -10h-46v961h-387v-938q0 -6 -2 -13q-4 -10 -20 -10h-45v961h-168zM272 1024h387v135q0 74 11.5 128t31.5 93q-41 33 -85 47.5t-107 14.5q-29 0 -70 -5t-77.5 -32t-63.5 -80t-27 -147v-154zM1071 0v987q0 29 13.5 33 t54.5 4v-1001q0 -16 -8.5 -19.5t-59.5 -3.5z" />
<glyph unicode="&#xfb04;" horiz-adv-x="1296" d="M37 961q0 45 3 54t19 9h146v158q0 117 35.5 182.5t87 97t104.5 37.5t90 6q59 0 114.5 -19.5t98.5 -47.5q45 53 104.5 64t112.5 11q76 0 127 -14t80 -31v-1445q0 -16 -8 -19.5t-59 -3.5v1425q-16 6 -50 14.5t-88 8.5q-41 0 -80.5 -5t-72.5 -32t-53.5 -83t-20.5 -161v-143 h199q0 -45 -3 -54t-20 -9h-176v-938q0 -6 -2 -13q-4 -10 -20 -10h-46v961h-387v-938q0 -6 -2 -13q-4 -10 -20 -10h-45v961h-168zM272 1024h387v135q0 76 10.5 130t28.5 95q-39 31 -83 44.5t-105 13.5q-29 0 -70 -5t-77.5 -32t-63.5 -80t-27 -147v-154z" />
</font>
</defs>
</svg>
